<?xml version="1.0" encoding="UTF-8" standalone="no"?><!DOCTYPE svg PUBLIC "-//W3C//DTD SVG 1.1//EN" "http://www.w3.org/Graphics/SVG/1.1/DTD/svg11.dtd"><svg width="80" height="93" viewBox="0 0 80 93" version="1.1" xmlns="http://www.w3.org/2000/svg" xmlns:xlink="http://www.w3.org/1999/xlink" xml:space="preserve" xmlns:serif="http://www.serif.com/" style="fill-rule:evenodd;clip-rule:evenodd;stroke-linejoin:round;stroke-miterlimit:2;"><g id="audon-logo-black"><path d="M2.941,51.725c-1.895,-4.652 -2.941,-9.74 -2.941,-15.069c0,-2.128 1.728,-3.856 3.855,-3.856c2.128,0 3.856,1.728 3.856,3.856c-0,4.3 0.841,8.406 2.371,12.159c4.807,11.802 16.398,20.13 29.918,20.13c13.52,-0 25.111,-8.328 29.918,-20.13c1.53,-3.753 2.371,-7.859 2.371,-12.159c0,-2.128 1.728,-3.856 3.856,-3.856c2.127,0 3.855,1.728 3.855,3.856c0,5.329 -1.046,10.417 -2.941,15.069c-4.526,11.11 -13.907,19.735 -25.502,23.233l-0,10.095l7.72,0c2.128,0 3.856,1.728 3.856,3.856c-0,2.127 -1.728,3.855 -3.856,3.855l-38.554,0c-2.128,0 -3.856,-1.728 -3.856,-3.855c0,-2.128 1.728,-3.856 3.856,-3.856l7.72,0l0,-10.095c-11.595,-3.498 -20.976,-12.123 -25.502,-23.233Zm40.905,24.748c-1.266,0.121 -2.549,0.183 -3.846,0.183c-1.297,-0 -2.58,-0.062 -3.846,-0.183c0,3.682 0,8.58 0,8.58l7.692,0l-0,-8.58Zm-0.824,-41.492c-1.09,-1.828 -0.491,-4.196 1.337,-5.286c1.828,-1.089 4.196,-0.49 5.286,1.338c3.132,5.255 1.409,12.064 -3.846,15.197c-5.254,3.132 -12.064,1.409 -15.196,-3.846c-5.176,-8.682 -2.329,-19.932 6.353,-25.107c8.682,-5.176 19.932,-2.329 25.108,6.353c7.218,12.109 3.247,27.8 -8.862,35.018c-12.109,7.218 -27.8,3.248 -35.018,-8.861c-9.261,-15.536 -4.167,-35.668 11.369,-44.929c15.536,-9.261 35.668,-4.167 44.93,11.369c1.089,1.828 0.49,4.196 -1.338,5.286c-1.828,1.089 -4.196,0.49 -5.286,-1.338c-7.082,-11.88 -22.477,-15.776 -34.357,-8.694c-11.881,7.082 -15.777,22.477 -8.695,34.358c5.039,8.453 15.994,11.225 24.447,6.186c8.453,-5.039 11.225,-15.993 6.186,-24.447c-2.996,-5.026 -9.509,-6.674 -14.536,-3.678c-5.026,2.996 -6.674,9.509 -3.678,14.536c0.953,1.599 3.026,2.123 4.625,1.17c1.599,-0.953 2.124,-3.026 1.171,-4.625Z"/></g></svg>