<?xml version="1.0" encoding="UTF-8" standalone="no"?><!DOCTYPE svg PUBLIC "-//W3C//DTD SVG 1.1//EN" "http://www.w3.org/Graphics/SVG/1.1/DTD/svg11.dtd"><svg width="100%" height="100%" viewBox="0 0 400 400" version="1.1" xmlns="http://www.w3.org/2000/svg" xmlns:xlink="http://www.w3.org/1999/xlink" xml:space="preserve" xmlns:serif="http://www.serif.com/" style="fill-rule:evenodd;clip-rule:evenodd;stroke-linejoin:round;stroke-miterlimit:2;"><rect id="audon-branding-color" x="0" y="0" width="400" height="400" style="fill:#fff;"/><g id="audon-branding-color1" serif:id="audon-branding-color"><g id="audon-wordmark-black-text"><path d="M143.357,95.481l14.988,-49.052l13.83,0l14.988,49.052l-9.538,-0l-13.353,-43.261l1.771,-0l-13.148,43.261l-9.538,-0Zm8.993,-10.219l-0,-8.652l25.888,-0l0,8.652l-25.888,-0Z" style="fill-rule:nonzero;"/><path d="M203.65,96.571c-2.884,-0 -5.235,-0.488 -7.051,-1.465c-1.817,-0.976 -3.231,-2.214 -4.241,-3.713c-1.011,-1.499 -1.732,-3.06 -2.163,-4.683c-0.432,-1.624 -0.693,-3.106 -0.784,-4.446c-0.091,-1.34 -0.136,-2.316 -0.136,-2.929l-0,-20.643l9.401,-0l0,17.373c0,0.84 0.046,1.913 0.137,3.219c0.091,1.305 0.374,2.617 0.851,3.934c0.477,1.317 1.255,2.418 2.334,3.304c1.078,0.886 2.606,1.329 4.581,1.329c0.795,-0 1.647,-0.125 2.555,-0.375c0.908,-0.25 1.76,-0.732 2.555,-1.448c0.795,-0.715 1.448,-1.771 1.959,-3.168c0.51,-1.396 0.766,-3.23 0.766,-5.501l5.314,2.521c-0,2.906 -0.591,5.632 -1.771,8.175c-1.181,2.543 -2.958,4.599 -5.331,6.166c-2.374,1.567 -5.365,2.35 -8.976,2.35Zm11.922,-1.09l0,-12.195l-1.158,0l-0,-24.594l9.333,-0l0,36.789l-8.175,-0Z" style="fill-rule:nonzero;"/><path d="M245.616,96.503c-3.383,-0 -6.347,-0.852 -8.89,-2.555c-2.544,-1.703 -4.525,-4.019 -5.944,-6.949c-1.42,-2.929 -2.129,-6.234 -2.129,-9.913c-0,-3.747 0.721,-7.079 2.163,-9.997c1.442,-2.918 3.469,-5.218 6.08,-6.898c2.612,-1.681 5.677,-2.521 9.197,-2.521c3.498,0 6.438,0.852 8.823,2.555c2.384,1.703 4.19,4.019 5.416,6.949c1.226,2.929 1.839,6.234 1.839,9.912c0,3.679 -0.618,6.984 -1.856,9.913c-1.238,2.93 -3.083,5.246 -5.535,6.949c-2.453,1.703 -5.507,2.555 -9.164,2.555Zm1.499,-8.244c2.067,0 3.719,-0.465 4.957,-1.396c1.237,-0.931 2.129,-2.237 2.674,-3.918c0.545,-1.68 0.817,-3.633 0.817,-5.859c0,-2.225 -0.272,-4.178 -0.817,-5.859c-0.545,-1.68 -1.414,-2.986 -2.606,-3.917c-1.193,-0.931 -2.754,-1.396 -4.684,-1.396c-2.067,-0 -3.764,0.505 -5.093,1.515c-1.328,1.011 -2.31,2.362 -2.946,4.054c-0.636,1.692 -0.954,3.56 -0.954,5.603c0,2.067 0.307,3.946 0.92,5.638c0.613,1.692 1.555,3.037 2.827,4.037c1.272,0.999 2.907,1.498 4.905,1.498Zm8.448,7.222l0,-25.207l-1.158,-0l-0,-23.845l9.333,0l0,49.052l-8.175,-0Z" style="fill-rule:nonzero;"/><path d="M288.196,96.503c-3.701,-0 -6.949,-0.829 -9.742,-2.487c-2.793,-1.658 -4.968,-3.946 -6.523,-6.864c-1.556,-2.918 -2.334,-6.273 -2.334,-10.066c0,-3.837 0.795,-7.215 2.385,-10.134c1.59,-2.918 3.781,-5.194 6.574,-6.829c2.793,-1.635 6.007,-2.453 9.64,-2.453c3.702,0 6.955,0.829 9.76,2.487c2.804,1.658 4.99,3.945 6.557,6.864c1.567,2.918 2.35,6.273 2.35,10.065c0,3.816 -0.789,7.182 -2.367,10.1c-1.578,2.919 -3.77,5.201 -6.575,6.847c-2.804,1.647 -6.046,2.47 -9.725,2.47Zm0,-8.652c2.975,-0 5.195,-1.005 6.66,-3.015c1.464,-2.01 2.197,-4.593 2.197,-7.75c-0,-3.27 -0.744,-5.881 -2.231,-7.834c-1.488,-1.953 -3.696,-2.93 -6.626,-2.93c-2.021,0 -3.679,0.454 -4.973,1.363c-1.294,0.908 -2.254,2.169 -2.878,3.781c-0.625,1.612 -0.937,3.486 -0.937,5.62c-0,3.293 0.744,5.911 2.231,7.852c1.487,1.942 3.673,2.913 6.557,2.913Z" style="fill-rule:nonzero;"/><path d="M337.521,95.481l-0,-17.373c-0,-0.84 -0.046,-1.913 -0.137,-3.219c-0.09,-1.305 -0.374,-2.617 -0.851,-3.934c-0.477,-1.317 -1.255,-2.419 -2.334,-3.304c-1.078,-0.886 -2.605,-1.329 -4.581,-1.329c-0.795,0 -1.647,0.125 -2.555,0.375c-0.908,0.25 -1.76,0.732 -2.555,1.448c-0.794,0.715 -1.447,1.765 -1.958,3.151c-0.511,1.385 -0.767,3.224 -0.767,5.518l-5.314,-2.521c0,-2.907 0.591,-5.632 1.772,-8.175c1.18,-2.544 2.957,-4.599 5.331,-6.166c2.373,-1.567 5.365,-2.35 8.975,-2.35c2.884,-0 5.235,0.488 7.052,1.465c1.816,0.976 3.23,2.214 4.241,3.713c1.01,1.498 1.731,3.06 2.163,4.683c0.431,1.624 0.692,3.106 0.783,4.446c0.091,1.34 0.136,2.316 0.136,2.929l0,20.643l-9.401,-0Zm-25.139,-0l-0,-36.789l8.243,-0l0,12.195l1.158,-0l0,24.594l-9.401,-0Z" style="fill-rule:nonzero;"/><g><path d="M48.018,76.725c-1.895,-4.652 -2.94,-9.74 -2.94,-15.069c-0,-2.128 1.727,-3.856 3.855,-3.856c2.128,0 3.856,1.728 3.856,3.856c-0,4.3 0.841,8.406 2.37,12.159c4.808,11.802 16.398,20.13 29.919,20.13c13.52,-0 25.11,-8.328 29.918,-20.13c1.529,-3.753 2.371,-7.859 2.371,-12.159c-0,-2.128 1.727,-3.856 3.855,-3.856c2.128,0 3.856,1.728 3.856,3.856c-0,5.329 -1.046,10.417 -2.941,15.069c-4.527,11.11 -13.908,19.735 -25.503,23.233l0,10.095l7.721,0c2.128,0 3.855,1.728 3.855,3.856c0,2.127 -1.727,3.855 -3.855,3.855l-38.554,0c-2.128,0 -3.856,-1.728 -3.856,-3.855c0,-2.128 1.728,-3.856 3.856,-3.856l7.72,0l-0,-10.095c-11.595,-3.498 -20.976,-12.123 -25.503,-23.233Zm40.905,24.748c-1.265,0.121 -2.548,0.183 -3.845,0.183c-1.298,-0 -2.58,-0.062 -3.846,-0.183c-0,3.682 -0,8.58 -0,8.58l7.691,0l0,-8.58Zm-0.824,-41.492c-1.089,-1.828 -0.49,-4.196 1.338,-5.286c1.828,-1.089 4.196,-0.49 5.286,1.338c3.132,5.255 1.409,12.064 -3.846,15.197c-5.255,3.132 -12.064,1.409 -15.197,-3.846c-5.175,-8.682 -2.328,-19.932 6.354,-25.107c8.682,-5.176 19.932,-2.329 25.107,6.353c7.219,12.109 3.248,27.8 -8.861,35.018c-12.109,7.218 -27.8,3.248 -35.018,-8.861c-9.261,-15.536 -4.167,-35.668 11.369,-44.929c15.536,-9.261 35.668,-4.167 44.929,11.369c1.09,1.828 0.49,4.196 -1.337,5.286c-1.828,1.089 -4.197,0.49 -5.286,-1.338c-7.082,-11.88 -22.477,-15.776 -34.358,-8.694c-11.88,7.082 -15.776,22.477 -8.694,34.358c5.039,8.453 15.993,11.225 24.447,6.186c8.453,-5.039 11.225,-15.993 6.186,-24.447c-2.996,-5.026 -9.509,-6.674 -14.536,-3.678c-5.026,2.996 -6.674,9.509 -3.678,14.536c0.953,1.599 3.026,2.123 4.625,1.17c1.599,-0.953 2.124,-3.026 1.17,-4.625Z" style="fill:url(#_Linear1);"/></g></g><g><g><path d="M91.048,228.75c2.207,-0 4,-1.792 4,-4l-0,-77c-0,-2.208 -1.793,-4 -4,-4l-32,-0c-2.208,-0 -4,1.792 -4,4l-0,77c-0,2.208 1.792,4 4,4l32,-0Z" style="fill:url(#_Linear2);"/><g><path d="M121.048,152.75c-0,4.967 -4.033,9 -9,9c-4.968,0 -9,-4.033 -9,-9c-0,-4.967 4.032,-9 9,-9c4.967,0 9,4.033 9,9Z" style="fill:#fab507;"/><path d="M128.239,158.494l0.816,-3.008l-2.784,-0l0.544,-2.048l2.784,-0l0.432,-1.648l-2.784,-0l0.56,-2.032l2.768,-0l0.752,-2.768l2.112,-0l-0.752,2.768l1.728,-0l0.752,-2.768l2.112,-0l-0.752,2.768l2.784,-0l-0.544,2.032l-2.784,-0l-0.448,1.648l2.784,-0l-0.544,2.048l-2.784,-0l-0.8,3.008l-2.112,-0l0.8,-3.008l-1.728,-0l-0.8,3.008l-2.112,-0Zm3.472,-5.056l1.712,-0l0.448,-1.648l-1.728,-0l-0.432,1.648Z" style="fill-rule:nonzero;"/><path d="M141.439,158.51l-0,-11.52l7.04,-0l-0,2.176l-4.864,-0l-0,2.496l3.904,-0l-0,2.176l-3.904,-0l-0,4.672l-2.176,-0Z" style="fill-rule:nonzero;"/><path d="M148.719,158.51l3.52,-11.52l3.248,-0l3.52,11.52l-2.24,-0l-3.136,-10.16l0.416,-0l-3.088,10.16l-2.24,-0Zm2.112,-2.4l-0,-2.032l6.08,-0l-0,2.032l-6.08,-0Z" style="fill-rule:nonzero;"/><path d="M159.663,158.51l-0,-11.52l4.608,-0c0.821,-0 1.485,0.164 1.992,0.492c0.506,0.328 0.877,0.74 1.112,1.236c0.234,0.496 0.352,0.997 0.352,1.504c-0,0.645 -0.146,1.181 -0.436,1.608c-0.291,0.427 -0.69,0.712 -1.196,0.856l-0,-0.4c0.72,0.149 1.26,0.483 1.62,1c0.36,0.517 0.54,1.096 0.54,1.736c-0,0.688 -0.127,1.293 -0.38,1.816c-0.254,0.523 -0.639,0.932 -1.156,1.228c-0.518,0.296 -1.168,0.444 -1.952,0.444l-5.104,-0Zm2.208,-2.048l2.672,-0c0.293,-0 0.554,-0.063 0.784,-0.188c0.229,-0.125 0.409,-0.301 0.54,-0.528c0.13,-0.227 0.196,-0.495 0.196,-0.804c-0,-0.272 -0.056,-0.515 -0.168,-0.728c-0.112,-0.213 -0.282,-0.383 -0.508,-0.508c-0.227,-0.125 -0.508,-0.188 -0.844,-0.188l-2.672,-0l-0,2.944Zm-0,-4.976l2.368,-0c0.245,-0 0.464,-0.043 0.656,-0.128c0.192,-0.085 0.344,-0.217 0.456,-0.396c0.112,-0.179 0.168,-0.409 0.168,-0.692c-0,-0.352 -0.11,-0.648 -0.328,-0.888c-0.219,-0.24 -0.536,-0.36 -0.952,-0.36l-2.368,-0l-0,2.464Z" style="fill-rule:nonzero;"/><path d="M173.103,158.75c-0.582,-0 -1.127,-0.12 -1.636,-0.36c-0.51,-0.24 -0.948,-0.573 -1.316,-1c-0.368,-0.427 -0.632,-0.923 -0.792,-1.488l2.096,-0.56c0.069,0.272 0.193,0.507 0.372,0.704c0.178,0.197 0.386,0.351 0.624,0.46c0.237,0.109 0.481,0.164 0.732,0.164c0.33,-0 0.633,-0.08 0.908,-0.24c0.274,-0.16 0.493,-0.376 0.656,-0.648c0.162,-0.272 0.244,-0.573 0.244,-0.904c-0,-0.331 -0.082,-0.632 -0.244,-0.904c-0.163,-0.272 -0.382,-0.488 -0.656,-0.648c-0.275,-0.16 -0.578,-0.24 -0.908,-0.24c-0.406,-0 -0.736,0.068 -0.992,0.204c-0.256,0.136 -0.448,0.265 -0.576,0.388l-1.84,-0.56l0.352,-6.128l6.288,-0l-0,2.032l-5.088,-0l0.768,-0.72l-0.24,3.952l-0.368,-0.448c0.288,-0.235 0.616,-0.405 0.984,-0.512c0.368,-0.107 0.712,-0.16 1.032,-0.16c0.725,-0 1.364,0.161 1.916,0.484c0.552,0.323 0.984,0.765 1.296,1.328c0.312,0.563 0.468,1.207 0.468,1.932c-0,0.725 -0.19,1.38 -0.568,1.964c-0.379,0.584 -0.878,1.048 -1.496,1.392c-0.619,0.344 -1.291,0.516 -2.016,0.516Z" style="fill-rule:nonzero;"/><path d="M183.503,158.75c-0.854,-0 -1.6,-0.179 -2.24,-0.536c-0.64,-0.357 -1.139,-0.856 -1.496,-1.496c-0.358,-0.64 -0.536,-1.387 -0.536,-2.24l-0,-3.456c-0,-0.853 0.178,-1.6 0.536,-2.24c0.357,-0.64 0.856,-1.139 1.496,-1.496c0.64,-0.357 1.386,-0.536 2.24,-0.536c0.853,-0 1.6,0.179 2.24,0.536c0.64,0.357 1.138,0.856 1.496,1.496c0.357,0.64 0.536,1.387 0.536,2.24l-0,3.456c-0,0.853 -0.179,1.6 -0.536,2.24c-0.358,0.64 -0.856,1.139 -1.496,1.496c-0.64,0.357 -1.387,0.536 -2.24,0.536Zm-0,-2.064c0.384,-0 0.73,-0.091 1.04,-0.272c0.309,-0.181 0.554,-0.427 0.736,-0.736c0.181,-0.309 0.272,-0.656 0.272,-1.04l-0,-3.792c-0,-0.384 -0.091,-0.731 -0.272,-1.04c-0.182,-0.309 -0.427,-0.555 -0.736,-0.736c-0.31,-0.181 -0.656,-0.272 -1.04,-0.272c-0.384,-0 -0.731,0.091 -1.04,0.272c-0.31,0.181 -0.555,0.427 -0.736,0.736c-0.182,0.309 -0.272,0.656 -0.272,1.04l-0,3.792c-0,0.384 0.09,0.731 0.272,1.04c0.181,0.309 0.426,0.555 0.736,0.736c0.309,0.181 0.656,0.272 1.04,0.272Z" style="fill-rule:nonzero;"/><path d="M189.455,158.51l3.872,-9.472l-4.928,-0l-0,-2.048l7.264,-0l-0,2.048l-3.856,9.472l-2.352,-0Z" style="fill-rule:nonzero;"/></g><g><path d="M121.048,186.25c-0,4.967 -4.033,9 -9,9c-4.968,-0 -9,-4.033 -9,-9c-0,-4.967 4.032,-9 9,-9c4.967,-0 9,4.033 9,9Z" style="fill:#ff8a00;"/><path d="M128.239,191.994l0.816,-3.008l-2.784,-0l0.544,-2.048l2.784,-0l0.432,-1.648l-2.784,-0l0.56,-2.032l2.768,-0l0.752,-2.768l2.112,-0l-0.752,2.768l1.728,-0l0.752,-2.768l2.112,-0l-0.752,2.768l2.784,-0l-0.544,2.032l-2.784,-0l-0.448,1.648l2.784,-0l-0.544,2.048l-2.784,-0l-0.8,3.008l-2.112,-0l0.8,-3.008l-1.728,-0l-0.8,3.008l-2.112,-0Zm3.472,-5.056l1.712,-0l0.448,-1.648l-1.728,-0l-0.432,1.648Z" style="fill-rule:nonzero;"/><path d="M141.439,192.01l-0,-11.52l7.04,-0l-0,2.176l-4.864,-0l-0,2.496l3.904,-0l-0,2.176l-3.904,-0l-0,4.672l-2.176,-0Z" style="fill-rule:nonzero;"/><path d="M149.679,192.01l-0,-11.52l7.04,-0l-0,2.176l-4.864,-0l-0,2.496l3.904,-0l-0,2.176l-3.904,-0l-0,4.672l-2.176,-0Z" style="fill-rule:nonzero;"/><path d="M161.775,192.25c-0.779,-0 -1.471,-0.159 -2.076,-0.476c-0.606,-0.317 -1.08,-0.755 -1.424,-1.312c-0.344,-0.557 -0.516,-1.193 -0.516,-1.908c-0,-0.608 0.137,-1.181 0.412,-1.72c0.274,-0.539 0.67,-0.979 1.188,-1.32l-0.048,0.672c-0.39,-0.379 -0.695,-0.779 -0.916,-1.2c-0.222,-0.421 -0.332,-0.896 -0.332,-1.424c-0,-0.667 0.158,-1.248 0.476,-1.744c0.317,-0.496 0.754,-0.881 1.312,-1.156c0.557,-0.275 1.198,-0.412 1.924,-0.412c0.725,-0 1.366,0.137 1.924,0.412c0.557,0.275 0.994,0.66 1.312,1.156c0.317,0.496 0.476,1.077 0.476,1.744c-0,0.528 -0.104,1.001 -0.312,1.42c-0.208,0.419 -0.526,0.825 -0.952,1.22l-0,-0.672c0.506,0.32 0.897,0.752 1.172,1.296c0.274,0.544 0.412,1.12 0.412,1.728c-0,0.715 -0.174,1.351 -0.52,1.908c-0.347,0.557 -0.824,0.995 -1.432,1.312c-0.608,0.317 -1.302,0.476 -2.08,0.476Zm-0,-2.048c0.512,-0 0.928,-0.139 1.248,-0.416c0.32,-0.277 0.48,-0.688 0.48,-1.232c-0,-0.539 -0.16,-0.951 -0.48,-1.236c-0.32,-0.285 -0.736,-0.428 -1.248,-0.428c-0.512,-0 -0.926,0.143 -1.24,0.428c-0.315,0.285 -0.472,0.697 -0.472,1.236c-0,0.544 0.157,0.955 0.472,1.232c0.314,0.277 0.728,0.416 1.24,0.416Zm-0,-5.376c0.416,-0 0.754,-0.103 1.016,-0.308c0.261,-0.205 0.392,-0.524 0.392,-0.956c-0,-0.432 -0.131,-0.753 -0.392,-0.964c-0.262,-0.211 -0.6,-0.316 -1.016,-0.316c-0.416,-0 -0.755,0.105 -1.016,0.316c-0.262,0.211 -0.392,0.532 -0.392,0.964c-0,0.432 0.13,0.751 0.392,0.956c0.261,0.205 0.6,0.308 1.016,0.308Z" style="fill-rule:nonzero;"/><path d="M166.463,192.01l3.52,-11.52l3.248,-0l3.52,11.52l-2.24,-0l-3.136,-10.16l0.416,-0l-3.088,10.16l-2.24,-0Zm2.112,-2.4l-0,-2.032l6.08,-0l-0,2.032l-6.08,-0Z" style="fill-rule:nonzero;"/><path d="M181.679,192.25c-0.854,-0 -1.6,-0.179 -2.24,-0.536c-0.64,-0.357 -1.139,-0.856 -1.496,-1.496c-0.358,-0.64 -0.536,-1.387 -0.536,-2.24l-0,-3.456c-0,-0.853 0.178,-1.6 0.536,-2.24c0.357,-0.64 0.856,-1.139 1.496,-1.496c0.64,-0.357 1.386,-0.536 2.24,-0.536c0.853,-0 1.6,0.179 2.24,0.536c0.64,0.357 1.138,0.856 1.496,1.496c0.357,0.64 0.536,1.387 0.536,2.24l-0,3.456c-0,0.853 -0.179,1.6 -0.536,2.24c-0.358,0.64 -0.856,1.139 -1.496,1.496c-0.64,0.357 -1.387,0.536 -2.24,0.536Zm-0,-2.064c0.384,-0 0.73,-0.091 1.04,-0.272c0.309,-0.181 0.554,-0.427 0.736,-0.736c0.181,-0.309 0.272,-0.656 0.272,-1.04l-0,-3.792c-0,-0.384 -0.091,-0.731 -0.272,-1.04c-0.182,-0.309 -0.427,-0.555 -0.736,-0.736c-0.31,-0.181 -0.656,-0.272 -1.04,-0.272c-0.384,-0 -0.731,0.091 -1.04,0.272c-0.31,0.181 -0.555,0.427 -0.736,0.736c-0.182,0.309 -0.272,0.656 -0.272,1.04l-0,3.792c-0,0.384 0.09,0.731 0.272,1.04c0.181,0.309 0.426,0.555 0.736,0.736c0.309,0.181 0.656,0.272 1.04,0.272Z" style="fill-rule:nonzero;"/><path d="M191.327,192.25c-0.854,-0 -1.6,-0.179 -2.24,-0.536c-0.64,-0.357 -1.139,-0.856 -1.496,-1.496c-0.358,-0.64 -0.536,-1.387 -0.536,-2.24l-0,-3.456c-0,-0.853 0.178,-1.6 0.536,-2.24c0.357,-0.64 0.856,-1.139 1.496,-1.496c0.64,-0.357 1.386,-0.536 2.24,-0.536c0.853,-0 1.6,0.179 2.24,0.536c0.64,0.357 1.138,0.856 1.496,1.496c0.357,0.64 0.536,1.387 0.536,2.24l-0,3.456c-0,0.853 -0.179,1.6 -0.536,2.24c-0.358,0.64 -0.856,1.139 -1.496,1.496c-0.64,0.357 -1.387,0.536 -2.24,0.536Zm-0,-2.064c0.384,-0 0.73,-0.091 1.04,-0.272c0.309,-0.181 0.554,-0.427 0.736,-0.736c0.181,-0.309 0.272,-0.656 0.272,-1.04l-0,-3.792c-0,-0.384 -0.091,-0.731 -0.272,-1.04c-0.182,-0.309 -0.427,-0.555 -0.736,-0.736c-0.31,-0.181 -0.656,-0.272 -1.04,-0.272c-0.384,-0 -0.731,0.091 -1.04,0.272c-0.31,0.181 -0.555,0.427 -0.736,0.736c-0.182,0.309 -0.272,0.656 -0.272,1.04l-0,3.792c-0,0.384 0.09,0.731 0.272,1.04c0.181,0.309 0.426,0.555 0.736,0.736c0.309,0.181 0.656,0.272 1.04,0.272Z" style="fill-rule:nonzero;"/></g><g><path d="M121.048,219.75c-0,4.967 -4.033,9 -9,9c-4.968,-0 -9,-4.033 -9,-9c-0,-4.967 4.032,-9 9,-9c4.967,-0 9,4.033 9,9Z" style="fill:#ff3401;"/><path d="M128.239,225.494l0.816,-3.008l-2.784,-0l0.544,-2.048l2.784,-0l0.432,-1.648l-2.784,-0l0.56,-2.032l2.768,-0l0.752,-2.768l2.112,-0l-0.752,2.768l1.728,-0l0.752,-2.768l2.112,-0l-0.752,2.768l2.784,-0l-0.544,2.032l-2.784,-0l-0.448,1.648l2.784,-0l-0.544,2.048l-2.784,-0l-0.8,3.008l-2.112,-0l0.8,-3.008l-1.728,-0l-0.8,3.008l-2.112,-0Zm3.472,-5.056l1.712,-0l0.448,-1.648l-1.728,-0l-0.432,1.648Z" style="fill-rule:nonzero;"/><path d="M141.439,225.51l-0,-11.52l7.04,-0l-0,2.176l-4.864,-0l-0,2.496l3.904,-0l-0,2.176l-3.904,-0l-0,4.672l-2.176,-0Z" style="fill-rule:nonzero;"/><path d="M149.679,225.51l-0,-11.52l7.04,-0l-0,2.176l-4.864,-0l-0,2.496l3.904,-0l-0,2.176l-3.904,-0l-0,4.672l-2.176,-0Z" style="fill-rule:nonzero;"/><path d="M161.279,225.718c-0.576,-0 -1.126,-0.116 -1.648,-0.348c-0.523,-0.232 -0.978,-0.559 -1.364,-0.98c-0.387,-0.421 -0.663,-0.917 -0.828,-1.488l2.112,-0.56c0.112,0.421 0.332,0.748 0.66,0.98c0.328,0.232 0.684,0.348 1.068,0.348c0.33,-0 0.633,-0.08 0.908,-0.24c0.274,-0.16 0.493,-0.376 0.656,-0.648c0.162,-0.272 0.244,-0.573 0.244,-0.904c-0,-0.496 -0.17,-0.921 -0.508,-1.276c-0.339,-0.355 -0.772,-0.532 -1.3,-0.532c-0.16,-0 -0.315,0.023 -0.464,0.068c-0.15,0.045 -0.294,0.108 -0.432,0.188l-0.976,-1.712l3.664,-3.04l0.16,0.464l-5.344,-0l-0,-2.048l7.2,-0l-0,2.048l-2.848,2.752l-0.016,-0.608c0.661,0.101 1.22,0.332 1.676,0.692c0.456,0.36 0.802,0.803 1.04,1.328c0.237,0.525 0.356,1.084 0.356,1.676c-0,0.725 -0.184,1.377 -0.552,1.956c-0.368,0.579 -0.856,1.037 -1.464,1.376c-0.608,0.339 -1.275,0.508 -2,0.508Z" style="fill-rule:nonzero;"/><path d="M171.551,225.51l-0,-1.792l-5.008,-0l-0,-2.032l3.632,-7.696l2.496,-0l-3.632,7.696l2.512,-0l-0,-2.88l2.208,-0l-0,2.88l1.024,-0l-0,2.032l-1.024,-0l-0,1.792l-2.208,-0Z" style="fill-rule:nonzero;"/><path d="M180.767,225.75c-0.854,-0 -1.6,-0.179 -2.24,-0.536c-0.64,-0.357 -1.139,-0.856 -1.496,-1.496c-0.358,-0.64 -0.536,-1.387 -0.536,-2.24l-0,-3.456c-0,-0.853 0.178,-1.6 0.536,-2.24c0.357,-0.64 0.856,-1.139 1.496,-1.496c0.64,-0.357 1.386,-0.536 2.24,-0.536c0.853,-0 1.6,0.179 2.24,0.536c0.64,0.357 1.138,0.856 1.496,1.496c0.357,0.64 0.536,1.387 0.536,2.24l-0,3.456c-0,0.853 -0.179,1.6 -0.536,2.24c-0.358,0.64 -0.856,1.139 -1.496,1.496c-0.64,0.357 -1.387,0.536 -2.24,0.536Zm-0,-2.064c0.384,-0 0.73,-0.091 1.04,-0.272c0.309,-0.181 0.554,-0.427 0.736,-0.736c0.181,-0.309 0.272,-0.656 0.272,-1.04l-0,-3.792c-0,-0.384 -0.091,-0.731 -0.272,-1.04c-0.182,-0.309 -0.427,-0.555 -0.736,-0.736c-0.31,-0.181 -0.656,-0.272 -1.04,-0.272c-0.384,-0 -0.731,0.091 -1.04,0.272c-0.31,0.181 -0.555,0.427 -0.736,0.736c-0.182,0.309 -0.272,0.656 -0.272,1.04l-0,3.792c-0,0.384 0.09,0.731 0.272,1.04c0.181,0.309 0.426,0.555 0.736,0.736c0.309,0.181 0.656,0.272 1.04,0.272Z" style="fill-rule:nonzero;"/><path d="M188.143,225.51l-0,-9.152l-2.16,1.328l-0,-2.4l2.16,-1.296l2.224,-0l-0,11.52l-2.224,-0Z" style="fill-rule:nonzero;"/></g><path d="M66.744,191.5c-0.509,-0 -0.986,-0.105 -1.432,-0.315c-0.446,-0.21 -0.829,-0.502 -1.151,-0.875c-0.322,-0.373 -0.553,-0.807 -0.693,-1.302l1.834,-0.49c0.06,0.238 0.169,0.443 0.325,0.616c0.156,0.173 0.338,0.307 0.546,0.402c0.208,0.096 0.421,0.144 0.641,0.144c0.289,-0 0.554,-0.07 0.794,-0.21c0.24,-0.14 0.432,-0.329 0.574,-0.567c0.142,-0.238 0.214,-0.502 0.214,-0.791c-0,-0.289 -0.072,-0.553 -0.214,-0.791c-0.142,-0.238 -0.334,-0.427 -0.574,-0.567c-0.24,-0.14 -0.505,-0.21 -0.794,-0.21c-0.355,-0 -0.644,0.059 -0.868,0.178c-0.224,0.119 -0.392,0.233 -0.504,0.34l-1.61,-0.49l0.308,-5.362l5.502,-0l-0,1.778l-4.452,-0l0.672,-0.63l-0.21,3.458l-0.322,-0.392c0.252,-0.205 0.539,-0.355 0.861,-0.448c0.322,-0.093 0.623,-0.14 0.903,-0.14c0.634,-0 1.193,0.141 1.676,0.423c0.483,0.283 0.861,0.67 1.134,1.162c0.273,0.493 0.41,1.056 0.41,1.691c-0,0.635 -0.166,1.207 -0.497,1.718c-0.332,0.511 -0.768,0.917 -1.309,1.218c-0.542,0.301 -1.13,0.452 -1.764,0.452Z" style="fill:#fff;fill-rule:nonzero;"/><path d="M75.844,191.5c-0.747,-0 -1.4,-0.156 -1.96,-0.469c-0.56,-0.313 -0.997,-0.749 -1.309,-1.309c-0.313,-0.56 -0.469,-1.213 -0.469,-1.96l-0,-3.024c-0,-0.747 0.156,-1.4 0.469,-1.96c0.312,-0.56 0.749,-0.996 1.309,-1.309c0.56,-0.313 1.213,-0.469 1.96,-0.469c0.746,-0 1.4,0.156 1.96,0.469c0.56,0.313 0.996,0.749 1.309,1.309c0.312,0.56 0.469,1.213 0.469,1.96l-0,3.024c-0,0.747 -0.157,1.4 -0.469,1.96c-0.313,0.56 -0.749,0.996 -1.309,1.309c-0.56,0.313 -1.214,0.469 -1.96,0.469Zm-0,-1.806c0.336,-0 0.639,-0.079 0.91,-0.238c0.27,-0.159 0.485,-0.373 0.644,-0.644c0.158,-0.271 0.238,-0.574 0.238,-0.91l-0,-3.318c-0,-0.336 -0.08,-0.639 -0.238,-0.91c-0.159,-0.271 -0.374,-0.485 -0.644,-0.644c-0.271,-0.159 -0.574,-0.238 -0.91,-0.238c-0.336,-0 -0.64,0.079 -0.91,0.238c-0.271,0.159 -0.486,0.373 -0.644,0.644c-0.159,0.271 -0.238,0.574 -0.238,0.91l-0,3.318c-0,0.336 0.079,0.639 0.238,0.91c0.158,0.271 0.373,0.485 0.644,0.644c0.27,0.159 0.574,0.238 0.91,0.238Z" style="fill:#fff;fill-rule:nonzero;"/><path d="M82.088,191.29l-1.26,-1.26l8.82,-8.82l1.26,1.274l-8.82,8.806Zm6.72,0.21c-0.462,-0 -0.884,-0.113 -1.264,-0.34c-0.38,-0.226 -0.685,-0.529 -0.913,-0.91c-0.229,-0.38 -0.343,-0.803 -0.343,-1.27c-0,-0.457 0.116,-0.877 0.35,-1.26c0.233,-0.383 0.541,-0.688 0.924,-0.917c0.382,-0.229 0.798,-0.343 1.246,-0.343c0.462,-0 0.884,0.113 1.267,0.339c0.382,0.227 0.687,0.53 0.913,0.91c0.226,0.381 0.34,0.804 0.34,1.271c-0,0.467 -0.114,0.89 -0.34,1.27c-0.226,0.381 -0.531,0.684 -0.913,0.91c-0.383,0.227 -0.805,0.34 -1.267,0.34Zm-0.002,-1.61c0.165,-0 0.315,-0.042 0.453,-0.126c0.138,-0.084 0.249,-0.195 0.333,-0.332c0.084,-0.138 0.126,-0.288 0.126,-0.452c-0,-0.163 -0.042,-0.314 -0.126,-0.452c-0.084,-0.137 -0.195,-0.248 -0.332,-0.332c-0.138,-0.084 -0.288,-0.126 -0.452,-0.126c-0.164,-0 -0.314,0.042 -0.452,0.126c-0.138,0.084 -0.248,0.195 -0.332,0.332c-0.084,0.138 -0.126,0.288 -0.126,0.452c-0,0.163 0.042,0.314 0.126,0.451c0.084,0.138 0.194,0.249 0.331,0.333c0.137,0.084 0.287,0.126 0.451,0.126Zm-5.878,-3.85c-0.462,-0 -0.885,-0.113 -1.267,-0.34c-0.383,-0.226 -0.688,-0.529 -0.914,-0.91c-0.226,-0.38 -0.339,-0.803 -0.339,-1.27c-0,-0.457 0.116,-0.877 0.35,-1.26c0.233,-0.383 0.541,-0.688 0.924,-0.917c0.382,-0.229 0.798,-0.343 1.246,-0.343c0.462,-0 0.883,0.113 1.263,0.339c0.38,0.227 0.685,0.53 0.914,0.91c0.228,0.381 0.343,0.804 0.343,1.271c-0,0.467 -0.115,0.89 -0.343,1.27c-0.229,0.381 -0.534,0.684 -0.914,0.91c-0.38,0.227 -0.801,0.34 -1.263,0.34Zm-0.002,-1.61c0.165,-0 0.315,-0.042 0.453,-0.126c0.138,-0.084 0.249,-0.195 0.333,-0.332c0.084,-0.138 0.126,-0.288 0.126,-0.452c-0,-0.163 -0.042,-0.314 -0.126,-0.452c-0.084,-0.137 -0.195,-0.248 -0.332,-0.332c-0.138,-0.084 -0.288,-0.126 -0.452,-0.126c-0.164,-0 -0.314,0.042 -0.452,0.126c-0.138,0.084 -0.248,0.195 -0.332,0.332c-0.084,0.138 -0.126,0.288 -0.126,0.452c-0,0.163 0.042,0.314 0.126,0.451c0.084,0.138 0.194,0.249 0.331,0.333c0.137,0.084 0.287,0.126 0.451,0.126Z" style="fill:#fff;fill-rule:nonzero;"/><path d="M60.052,157.79l-0,-8.008l-1.89,1.162l-0,-2.1l1.89,-1.134l1.946,-0l-0,10.08l-1.946,-0Z" style="fill:#fff;fill-rule:nonzero;"/><path d="M67.402,158c-0.747,-0 -1.4,-0.156 -1.96,-0.469c-0.56,-0.313 -0.997,-0.749 -1.309,-1.309c-0.313,-0.56 -0.469,-1.213 -0.469,-1.96l-0,-3.024c-0,-0.747 0.156,-1.4 0.469,-1.96c0.312,-0.56 0.749,-0.996 1.309,-1.309c0.56,-0.313 1.213,-0.469 1.96,-0.469c0.746,-0 1.4,0.156 1.96,0.469c0.56,0.313 0.996,0.749 1.309,1.309c0.312,0.56 0.469,1.213 0.469,1.96l-0,3.024c-0,0.747 -0.157,1.4 -0.469,1.96c-0.313,0.56 -0.749,0.996 -1.309,1.309c-0.56,0.313 -1.214,0.469 -1.96,0.469Zm-0,-1.806c0.336,-0 0.639,-0.079 0.91,-0.238c0.27,-0.159 0.485,-0.373 0.644,-0.644c0.158,-0.271 0.238,-0.574 0.238,-0.91l-0,-3.318c-0,-0.336 -0.08,-0.639 -0.238,-0.91c-0.159,-0.271 -0.374,-0.485 -0.644,-0.644c-0.271,-0.159 -0.574,-0.238 -0.91,-0.238c-0.336,0 -0.64,0.079 -0.91,0.238c-0.271,0.159 -0.486,0.373 -0.644,0.644c-0.159,0.271 -0.238,0.574 -0.238,0.91l-0,3.318c-0,0.336 0.079,0.639 0.238,0.91c0.158,0.271 0.373,0.485 0.644,0.644c0.27,0.159 0.574,0.238 0.91,0.238Z" style="fill:#fff;fill-rule:nonzero;"/><path d="M75.844,158c-0.747,-0 -1.4,-0.156 -1.96,-0.469c-0.56,-0.313 -0.997,-0.749 -1.309,-1.309c-0.313,-0.56 -0.469,-1.213 -0.469,-1.96l-0,-3.024c-0,-0.747 0.156,-1.4 0.469,-1.96c0.312,-0.56 0.749,-0.996 1.309,-1.309c0.56,-0.313 1.213,-0.469 1.96,-0.469c0.746,-0 1.4,0.156 1.96,0.469c0.56,0.313 0.996,0.749 1.309,1.309c0.312,0.56 0.469,1.213 0.469,1.96l-0,3.024c-0,0.747 -0.157,1.4 -0.469,1.96c-0.313,0.56 -0.749,0.996 -1.309,1.309c-0.56,0.313 -1.214,0.469 -1.96,0.469Zm-0,-1.806c0.336,-0 0.639,-0.079 0.91,-0.238c0.27,-0.159 0.485,-0.373 0.644,-0.644c0.158,-0.271 0.238,-0.574 0.238,-0.91l-0,-3.318c-0,-0.336 -0.08,-0.639 -0.238,-0.91c-0.159,-0.271 -0.374,-0.485 -0.644,-0.644c-0.271,-0.159 -0.574,-0.238 -0.91,-0.238c-0.336,0 -0.64,0.079 -0.91,0.238c-0.271,0.159 -0.486,0.373 -0.644,0.644c-0.159,0.271 -0.238,0.574 -0.238,0.91l-0,3.318c-0,0.336 0.079,0.639 0.238,0.91c0.158,0.271 0.373,0.485 0.644,0.644c0.27,0.159 0.574,0.238 0.91,0.238Z" style="fill:#fff;fill-rule:nonzero;"/><path d="M82.088,157.79l-1.26,-1.26l8.82,-8.82l1.26,1.274l-8.82,8.806Zm6.72,0.21c-0.462,-0 -0.884,-0.113 -1.264,-0.34c-0.38,-0.226 -0.685,-0.529 -0.913,-0.91c-0.229,-0.38 -0.343,-0.803 -0.343,-1.27c-0,-0.457 0.116,-0.877 0.35,-1.26c0.233,-0.383 0.541,-0.688 0.924,-0.917c0.382,-0.229 0.798,-0.343 1.246,-0.343c0.462,-0 0.884,0.113 1.267,0.339c0.382,0.227 0.687,0.53 0.913,0.91c0.226,0.381 0.34,0.804 0.34,1.271c-0,0.467 -0.114,0.89 -0.34,1.27c-0.226,0.381 -0.531,0.684 -0.913,0.91c-0.383,0.227 -0.805,0.34 -1.267,0.34Zm-0.002,-1.61c0.165,-0 0.315,-0.042 0.453,-0.126c0.138,-0.084 0.249,-0.195 0.333,-0.332c0.084,-0.138 0.126,-0.288 0.126,-0.452c-0,-0.163 -0.042,-0.314 -0.126,-0.452c-0.084,-0.137 -0.195,-0.248 -0.332,-0.332c-0.138,-0.084 -0.288,-0.126 -0.452,-0.126c-0.164,-0 -0.314,0.042 -0.452,0.126c-0.138,0.084 -0.248,0.195 -0.332,0.332c-0.084,0.138 -0.126,0.288 -0.126,0.452c-0,0.163 0.042,0.314 0.126,0.451c0.084,0.138 0.194,0.249 0.331,0.333c0.137,0.084 0.287,0.126 0.451,0.126Zm-5.878,-3.85c-0.462,-0 -0.885,-0.113 -1.267,-0.34c-0.383,-0.226 -0.688,-0.529 -0.914,-0.91c-0.226,-0.38 -0.339,-0.803 -0.339,-1.27c-0,-0.457 0.116,-0.877 0.35,-1.26c0.233,-0.383 0.541,-0.688 0.924,-0.917c0.382,-0.229 0.798,-0.343 1.246,-0.343c0.462,-0 0.883,0.113 1.263,0.339c0.38,0.227 0.685,0.53 0.914,0.91c0.228,0.381 0.343,0.804 0.343,1.271c-0,0.467 -0.115,0.89 -0.343,1.27c-0.229,0.381 -0.534,0.684 -0.914,0.91c-0.38,0.227 -0.801,0.34 -1.263,0.34Zm-0.002,-1.61c0.165,-0 0.315,-0.042 0.453,-0.126c0.138,-0.084 0.249,-0.195 0.333,-0.332c0.084,-0.138 0.126,-0.288 0.126,-0.452c-0,-0.163 -0.042,-0.314 -0.126,-0.452c-0.084,-0.137 -0.195,-0.248 -0.332,-0.332c-0.138,-0.084 -0.288,-0.126 -0.452,-0.126c-0.164,-0 -0.314,0.042 -0.452,0.126c-0.138,0.084 -0.248,0.195 -0.332,0.332c-0.084,0.138 -0.126,0.288 -0.126,0.452c-0,0.163 0.042,0.314 0.126,0.451c0.084,0.138 0.194,0.249 0.331,0.333c0.137,0.084 0.287,0.126 0.451,0.126Z" style="fill:#fff;fill-rule:nonzero;"/><path d="M75.844,225c-0.747,-0 -1.4,-0.156 -1.96,-0.469c-0.56,-0.313 -0.997,-0.749 -1.309,-1.309c-0.313,-0.56 -0.469,-1.213 -0.469,-1.96l-0,-3.024c-0,-0.747 0.156,-1.4 0.469,-1.96c0.312,-0.56 0.749,-0.996 1.309,-1.309c0.56,-0.313 1.213,-0.469 1.96,-0.469c0.746,-0 1.4,0.156 1.96,0.469c0.56,0.313 0.996,0.749 1.309,1.309c0.312,0.56 0.469,1.213 0.469,1.96l-0,3.024c-0,0.747 -0.157,1.4 -0.469,1.96c-0.313,0.56 -0.749,0.996 -1.309,1.309c-0.56,0.313 -1.214,0.469 -1.96,0.469Zm-0,-1.806c0.336,-0 0.639,-0.079 0.91,-0.238c0.27,-0.159 0.485,-0.373 0.644,-0.644c0.158,-0.271 0.238,-0.574 0.238,-0.91l-0,-3.318c-0,-0.336 -0.08,-0.639 -0.238,-0.91c-0.159,-0.271 -0.374,-0.485 -0.644,-0.644c-0.271,-0.159 -0.574,-0.238 -0.91,-0.238c-0.336,-0 -0.64,0.079 -0.91,0.238c-0.271,0.159 -0.486,0.373 -0.644,0.644c-0.159,0.271 -0.238,0.574 -0.238,0.91l-0,3.318c-0,0.336 0.079,0.639 0.238,0.91c0.158,0.271 0.373,0.485 0.644,0.644c0.27,0.159 0.574,0.238 0.91,0.238Z" style="fill:#fff;fill-rule:nonzero;"/><path d="M82.088,224.79l-1.26,-1.26l8.82,-8.82l1.26,1.274l-8.82,8.806Zm6.72,0.21c-0.462,-0 -0.884,-0.113 -1.264,-0.34c-0.38,-0.226 -0.685,-0.529 -0.913,-0.91c-0.229,-0.38 -0.343,-0.803 -0.343,-1.27c-0,-0.457 0.116,-0.877 0.35,-1.26c0.233,-0.383 0.541,-0.688 0.924,-0.917c0.382,-0.229 0.798,-0.343 1.246,-0.343c0.462,-0 0.884,0.113 1.267,0.339c0.382,0.227 0.687,0.53 0.913,0.91c0.226,0.381 0.34,0.804 0.34,1.271c-0,0.467 -0.114,0.89 -0.34,1.27c-0.226,0.381 -0.531,0.684 -0.913,0.91c-0.383,0.227 -0.805,0.34 -1.267,0.34Zm-0.002,-1.61c0.165,-0 0.315,-0.042 0.453,-0.126c0.138,-0.084 0.249,-0.195 0.333,-0.332c0.084,-0.138 0.126,-0.288 0.126,-0.452c-0,-0.163 -0.042,-0.314 -0.126,-0.452c-0.084,-0.137 -0.195,-0.248 -0.332,-0.332c-0.138,-0.084 -0.288,-0.126 -0.452,-0.126c-0.164,-0 -0.314,0.042 -0.452,0.126c-0.138,0.084 -0.248,0.195 -0.332,0.332c-0.084,0.138 -0.126,0.288 -0.126,0.452c-0,0.163 0.042,0.314 0.126,0.451c0.084,0.138 0.194,0.249 0.331,0.333c0.137,0.084 0.287,0.126 0.451,0.126Zm-5.878,-3.85c-0.462,-0 -0.885,-0.113 -1.267,-0.34c-0.383,-0.226 -0.688,-0.529 -0.914,-0.91c-0.226,-0.38 -0.339,-0.803 -0.339,-1.27c-0,-0.457 0.116,-0.877 0.35,-1.26c0.233,-0.383 0.541,-0.688 0.924,-0.917c0.382,-0.229 0.798,-0.343 1.246,-0.343c0.462,-0 0.883,0.113 1.263,0.339c0.38,0.227 0.685,0.53 0.914,0.91c0.228,0.381 0.343,0.804 0.343,1.271c-0,0.467 -0.115,0.89 -0.343,1.27c-0.229,0.381 -0.534,0.684 -0.914,0.91c-0.38,0.227 -0.801,0.34 -1.263,0.34Zm-0.002,-1.61c0.165,-0 0.315,-0.042 0.453,-0.126c0.138,-0.084 0.249,-0.195 0.333,-0.332c0.084,-0.138 0.126,-0.288 0.126,-0.452c-0,-0.163 -0.042,-0.314 -0.126,-0.452c-0.084,-0.137 -0.195,-0.248 -0.332,-0.332c-0.138,-0.084 -0.288,-0.126 -0.452,-0.126c-0.164,-0 -0.314,0.042 -0.452,0.126c-0.138,0.084 -0.248,0.195 -0.332,0.332c-0.084,0.138 -0.126,0.288 -0.126,0.452c-0,0.163 0.042,0.314 0.126,0.451c0.084,0.138 0.194,0.249 0.331,0.333c0.137,0.084 0.287,0.126 0.451,0.126Z" style="fill:#fff;fill-rule:nonzero;"/></g><g><path d="M267.777,152.75c0,4.967 -4.032,9 -9,9c-4.967,-0 -9,-4.033 -9,-9c0,-4.967 4.033,-9 9,-9c4.968,-0 9,4.033 9,9Z"/><path d="M274.968,158.494l0.816,-3.008l-2.784,-0l0.544,-2.048l2.784,-0l0.432,-1.648l-2.784,-0l0.56,-2.032l2.768,-0l0.752,-2.768l2.112,-0l-0.752,2.768l1.728,-0l0.752,-2.768l2.112,-0l-0.752,2.768l2.784,-0l-0.544,2.032l-2.784,-0l-0.448,1.648l2.784,-0l-0.544,2.048l-2.784,-0l-0.8,3.008l-2.112,-0l0.8,-3.008l-1.728,-0l-0.8,3.008l-2.112,-0Zm3.472,-5.056l1.712,-0l0.448,-1.648l-1.728,-0l-0.432,1.648Z" style="fill-rule:nonzero;"/><path d="M292.44,158.75c-0.853,-0 -1.6,-0.179 -2.24,-0.536c-0.64,-0.357 -1.138,-0.856 -1.496,-1.496c-0.357,-0.64 -0.536,-1.387 -0.536,-2.24l0,-3.456c0,-0.853 0.179,-1.6 0.536,-2.24c0.358,-0.64 0.856,-1.139 1.496,-1.496c0.64,-0.357 1.387,-0.536 2.24,-0.536c0.854,-0 1.6,0.179 2.24,0.536c0.64,0.357 1.139,0.856 1.496,1.496c0.358,0.64 0.536,1.387 0.536,2.24l0,3.456c0,0.853 -0.178,1.6 -0.536,2.24c-0.357,0.64 -0.856,1.139 -1.496,1.496c-0.64,0.357 -1.386,0.536 -2.24,0.536Zm0,-2.064c0.384,-0 0.731,-0.091 1.04,-0.272c0.31,-0.181 0.555,-0.427 0.736,-0.736c0.182,-0.309 0.272,-0.656 0.272,-1.04l0,-3.792c0,-0.384 -0.09,-0.731 -0.272,-1.04c-0.181,-0.309 -0.426,-0.555 -0.736,-0.736c-0.309,-0.181 -0.656,-0.272 -1.04,-0.272c-0.384,-0 -0.73,0.091 -1.04,0.272c-0.309,0.181 -0.554,0.427 -0.736,0.736c-0.181,0.309 -0.272,0.656 -0.272,1.04l0,3.792c0,0.384 0.091,0.731 0.272,1.04c0.182,0.309 0.427,0.555 0.736,0.736c0.31,0.181 0.656,0.272 1.04,0.272Z" style="fill-rule:nonzero;"/><path d="M302.088,158.75c-0.853,-0 -1.6,-0.179 -2.24,-0.536c-0.64,-0.357 -1.138,-0.856 -1.496,-1.496c-0.357,-0.64 -0.536,-1.387 -0.536,-2.24l0,-3.456c0,-0.853 0.179,-1.6 0.536,-2.24c0.358,-0.64 0.856,-1.139 1.496,-1.496c0.64,-0.357 1.387,-0.536 2.24,-0.536c0.854,-0 1.6,0.179 2.24,0.536c0.64,0.357 1.139,0.856 1.496,1.496c0.358,0.64 0.536,1.387 0.536,2.24l0,3.456c0,0.853 -0.178,1.6 -0.536,2.24c-0.357,0.64 -0.856,1.139 -1.496,1.496c-0.64,0.357 -1.386,0.536 -2.24,0.536Zm0,-2.064c0.384,-0 0.731,-0.091 1.04,-0.272c0.31,-0.181 0.555,-0.427 0.736,-0.736c0.182,-0.309 0.272,-0.656 0.272,-1.04l0,-3.792c0,-0.384 -0.09,-0.731 -0.272,-1.04c-0.181,-0.309 -0.426,-0.555 -0.736,-0.736c-0.309,-0.181 -0.656,-0.272 -1.04,-0.272c-0.384,-0 -0.73,0.091 -1.04,0.272c-0.309,0.181 -0.554,0.427 -0.736,0.736c-0.181,0.309 -0.272,0.656 -0.272,1.04l0,3.792c0,0.384 0.091,0.731 0.272,1.04c0.182,0.309 0.427,0.555 0.736,0.736c0.31,0.181 0.656,0.272 1.04,0.272Z" style="fill-rule:nonzero;"/><path d="M311.736,158.75c-0.853,-0 -1.6,-0.179 -2.24,-0.536c-0.64,-0.357 -1.138,-0.856 -1.496,-1.496c-0.357,-0.64 -0.536,-1.387 -0.536,-2.24l0,-3.456c0,-0.853 0.179,-1.6 0.536,-2.24c0.358,-0.64 0.856,-1.139 1.496,-1.496c0.64,-0.357 1.387,-0.536 2.24,-0.536c0.854,-0 1.6,0.179 2.24,0.536c0.64,0.357 1.139,0.856 1.496,1.496c0.358,0.64 0.536,1.387 0.536,2.24l0,3.456c0,0.853 -0.178,1.6 -0.536,2.24c-0.357,0.64 -0.856,1.139 -1.496,1.496c-0.64,0.357 -1.386,0.536 -2.24,0.536Zm0,-2.064c0.384,-0 0.731,-0.091 1.04,-0.272c0.31,-0.181 0.555,-0.427 0.736,-0.736c0.182,-0.309 0.272,-0.656 0.272,-1.04l0,-3.792c0,-0.384 -0.09,-0.731 -0.272,-1.04c-0.181,-0.309 -0.426,-0.555 -0.736,-0.736c-0.309,-0.181 -0.656,-0.272 -1.04,-0.272c-0.384,-0 -0.73,0.091 -1.04,0.272c-0.309,0.181 -0.554,0.427 -0.736,0.736c-0.181,0.309 -0.272,0.656 -0.272,1.04l0,3.792c0,0.384 0.091,0.731 0.272,1.04c0.182,0.309 0.427,0.555 0.736,0.736c0.31,0.181 0.656,0.272 1.04,0.272Z" style="fill-rule:nonzero;"/><path d="M321.384,158.75c-0.853,-0 -1.6,-0.179 -2.24,-0.536c-0.64,-0.357 -1.138,-0.856 -1.496,-1.496c-0.357,-0.64 -0.536,-1.387 -0.536,-2.24l0,-3.456c0,-0.853 0.179,-1.6 0.536,-2.24c0.358,-0.64 0.856,-1.139 1.496,-1.496c0.64,-0.357 1.387,-0.536 2.24,-0.536c0.854,-0 1.6,0.179 2.24,0.536c0.64,0.357 1.139,0.856 1.496,1.496c0.358,0.64 0.536,1.387 0.536,2.24l0,3.456c0,0.853 -0.178,1.6 -0.536,2.24c-0.357,0.64 -0.856,1.139 -1.496,1.496c-0.64,0.357 -1.386,0.536 -2.24,0.536Zm0,-2.064c0.384,-0 0.731,-0.091 1.04,-0.272c0.31,-0.181 0.555,-0.427 0.736,-0.736c0.182,-0.309 0.272,-0.656 0.272,-1.04l0,-3.792c0,-0.384 -0.09,-0.731 -0.272,-1.04c-0.181,-0.309 -0.426,-0.555 -0.736,-0.736c-0.309,-0.181 -0.656,-0.272 -1.04,-0.272c-0.384,-0 -0.73,0.091 -1.04,0.272c-0.309,0.181 -0.554,0.427 -0.736,0.736c-0.181,0.309 -0.272,0.656 -0.272,1.04l0,3.792c0,0.384 0.091,0.731 0.272,1.04c0.182,0.309 0.427,0.555 0.736,0.736c0.31,0.181 0.656,0.272 1.04,0.272Z" style="fill-rule:nonzero;"/><path d="M331.032,158.75c-0.853,-0 -1.6,-0.179 -2.24,-0.536c-0.64,-0.357 -1.138,-0.856 -1.496,-1.496c-0.357,-0.64 -0.536,-1.387 -0.536,-2.24l0,-3.456c0,-0.853 0.179,-1.6 0.536,-2.24c0.358,-0.64 0.856,-1.139 1.496,-1.496c0.64,-0.357 1.387,-0.536 2.24,-0.536c0.854,-0 1.6,0.179 2.24,0.536c0.64,0.357 1.139,0.856 1.496,1.496c0.358,0.64 0.536,1.387 0.536,2.24l0,3.456c0,0.853 -0.178,1.6 -0.536,2.24c-0.357,0.64 -0.856,1.139 -1.496,1.496c-0.64,0.357 -1.386,0.536 -2.24,0.536Zm0,-2.064c0.384,-0 0.731,-0.091 1.04,-0.272c0.31,-0.181 0.555,-0.427 0.736,-0.736c0.182,-0.309 0.272,-0.656 0.272,-1.04l0,-3.792c0,-0.384 -0.09,-0.731 -0.272,-1.04c-0.181,-0.309 -0.426,-0.555 -0.736,-0.736c-0.309,-0.181 -0.656,-0.272 -1.04,-0.272c-0.384,-0 -0.73,0.091 -1.04,0.272c-0.309,0.181 -0.554,0.427 -0.736,0.736c-0.181,0.309 -0.272,0.656 -0.272,1.04l0,3.792c0,0.384 0.091,0.731 0.272,1.04c0.182,0.309 0.427,0.555 0.736,0.736c0.31,0.181 0.656,0.272 1.04,0.272Z" style="fill-rule:nonzero;"/><path d="M340.68,158.75c-0.853,-0 -1.6,-0.179 -2.24,-0.536c-0.64,-0.357 -1.138,-0.856 -1.496,-1.496c-0.357,-0.64 -0.536,-1.387 -0.536,-2.24l0,-3.456c0,-0.853 0.179,-1.6 0.536,-2.24c0.358,-0.64 0.856,-1.139 1.496,-1.496c0.64,-0.357 1.387,-0.536 2.24,-0.536c0.854,-0 1.6,0.179 2.24,0.536c0.64,0.357 1.139,0.856 1.496,1.496c0.358,0.64 0.536,1.387 0.536,2.24l0,3.456c0,0.853 -0.178,1.6 -0.536,2.24c-0.357,0.64 -0.856,1.139 -1.496,1.496c-0.64,0.357 -1.386,0.536 -2.24,0.536Zm0,-2.064c0.384,-0 0.731,-0.091 1.04,-0.272c0.31,-0.181 0.555,-0.427 0.736,-0.736c0.182,-0.309 0.272,-0.656 0.272,-1.04l0,-3.792c0,-0.384 -0.09,-0.731 -0.272,-1.04c-0.181,-0.309 -0.426,-0.555 -0.736,-0.736c-0.309,-0.181 -0.656,-0.272 -1.04,-0.272c-0.384,-0 -0.73,0.091 -1.04,0.272c-0.309,0.181 -0.554,0.427 -0.736,0.736c-0.181,0.309 -0.272,0.656 -0.272,1.04l0,3.792c0,0.384 0.091,0.731 0.272,1.04c0.182,0.309 0.427,0.555 0.736,0.736c0.31,0.181 0.656,0.272 1.04,0.272Z" style="fill-rule:nonzero;"/></g><g><path d="M267.777,186.25c0,4.967 -4.032,9 -9,9c-4.967,-0 -9,-4.033 -9,-9c0,-4.967 4.033,-9 9,-9c4.968,-0 9,4.033 9,9Z" style="fill:#fff;"/><path d="M267.777,186.25c0,4.967 -4.032,9 -9,9c-4.967,-0 -9,-4.033 -9,-9c0,-4.967 4.033,-9 9,-9c4.968,-0 9,4.033 9,9Zm-1,-0c0,-4.415 -3.584,-8 -8,-8c-4.415,-0 -8,3.585 -8,8c0,4.415 3.585,8 8,8c4.416,-0 8,-3.585 8,-8Z"/><path d="M274.968,191.994l0.816,-3.008l-2.784,-0l0.544,-2.048l2.784,-0l0.432,-1.648l-2.784,-0l0.56,-2.032l2.768,-0l0.752,-2.768l2.112,-0l-0.752,2.768l1.728,-0l0.752,-2.768l2.112,-0l-0.752,2.768l2.784,-0l-0.544,2.032l-2.784,-0l-0.448,1.648l2.784,-0l-0.544,2.048l-2.784,-0l-0.8,3.008l-2.112,-0l0.8,-3.008l-1.728,-0l-0.8,3.008l-2.112,-0Zm3.472,-5.056l1.712,-0l0.448,-1.648l-1.728,-0l-0.432,1.648Z" style="fill-rule:nonzero;"/><path d="M288.168,192.01l0,-11.52l7.04,-0l0,2.176l-4.864,-0l0,2.496l3.904,-0l0,2.176l-3.904,-0l0,4.672l-2.176,-0Z" style="fill-rule:nonzero;"/><path d="M296.408,192.01l0,-11.52l7.04,-0l0,2.176l-4.864,-0l0,2.496l3.904,-0l0,2.176l-3.904,-0l0,4.672l-2.176,-0Z" style="fill-rule:nonzero;"/><path d="M304.648,192.01l0,-11.52l7.04,-0l0,2.176l-4.864,-0l0,2.496l3.904,-0l0,2.176l-3.904,-0l0,4.672l-2.176,-0Z" style="fill-rule:nonzero;"/><path d="M312.888,192.01l0,-11.52l7.04,-0l0,2.176l-4.864,-0l0,2.496l3.904,-0l0,2.176l-3.904,-0l0,4.672l-2.176,-0Z" style="fill-rule:nonzero;"/><path d="M321.128,192.01l0,-11.52l7.04,-0l0,2.176l-4.864,-0l0,2.496l3.904,-0l0,2.176l-3.904,-0l0,4.672l-2.176,-0Z" style="fill-rule:nonzero;"/><path d="M329.368,192.01l0,-11.52l7.04,-0l0,2.176l-4.864,-0l0,2.496l3.904,-0l0,2.176l-3.904,-0l0,4.672l-2.176,-0Z" style="fill-rule:nonzero;"/></g></g><g><g><g><path d="M58.451,361.892c0,4.967 -4.033,9 -9,9c-4.967,-0 -9,-4.033 -9,-9c0,-4.968 4.033,-9 9,-9c4.967,-0 9,4.032 9,9Z" style="fill:#17063b;"/><path d="M65.642,367.636l0.816,-3.008l-2.784,-0l0.544,-2.048l2.784,-0l0.432,-1.648l-2.784,-0l0.56,-2.032l2.768,-0l0.752,-2.768l2.112,-0l-0.752,2.768l1.728,-0l0.752,-2.768l2.112,-0l-0.752,2.768l2.784,-0l-0.544,2.032l-2.784,-0l-0.448,1.648l2.784,-0l-0.544,2.048l-2.784,-0l-0.8,3.008l-2.112,-0l0.8,-3.008l-1.728,-0l-0.8,3.008l-2.112,-0Zm3.472,-5.056l1.712,-0l0.448,-1.648l-1.728,-0l-0.432,1.648Z" style="fill-rule:nonzero;"/><path d="M80.842,367.652l0,-9.152l-2.16,1.328l0,-2.4l2.16,-1.296l2.224,-0l0,11.52l-2.224,-0Z" style="fill-rule:nonzero;"/><path d="M85.546,367.652l3.872,-9.472l-4.928,-0l0,-2.048l7.264,-0l0,2.048l-3.856,9.472l-2.352,-0Z" style="fill-rule:nonzero;"/><path d="M97.338,367.892c-0.853,-0 -1.6,-0.179 -2.24,-0.536c-0.64,-0.358 -1.139,-0.856 -1.496,-1.496c-0.357,-0.64 -0.536,-1.387 -0.536,-2.24l0,-3.456c0,-0.854 0.179,-1.6 0.536,-2.24c0.357,-0.64 0.856,-1.139 1.496,-1.496c0.64,-0.358 1.387,-0.536 2.24,-0.536c0.853,-0 1.6,0.178 2.24,0.536c0.64,0.357 1.139,0.856 1.496,1.496c0.357,0.64 0.536,1.386 0.536,2.24l0,3.456c0,0.853 -0.179,1.6 -0.536,2.24c-0.357,0.64 -0.856,1.138 -1.496,1.496c-0.64,0.357 -1.387,0.536 -2.24,0.536Zm0,-2.064c0.384,-0 0.731,-0.091 1.04,-0.272c0.309,-0.182 0.555,-0.427 0.736,-0.736c0.181,-0.31 0.272,-0.656 0.272,-1.04l0,-3.792c0,-0.384 -0.091,-0.731 -0.272,-1.04c-0.181,-0.31 -0.427,-0.555 -0.736,-0.736c-0.309,-0.182 -0.656,-0.272 -1.04,-0.272c-0.384,-0 -0.731,0.09 -1.04,0.272c-0.309,0.181 -0.555,0.426 -0.736,0.736c-0.181,0.309 -0.272,0.656 -0.272,1.04l0,3.792c0,0.384 0.091,0.73 0.272,1.04c0.181,0.309 0.427,0.554 0.736,0.736c0.309,0.181 0.656,0.272 1.04,0.272Z" style="fill-rule:nonzero;"/><path d="M106.73,367.892c-0.763,-0 -1.447,-0.179 -2.052,-0.536c-0.605,-0.358 -1.084,-0.855 -1.436,-1.492c-0.352,-0.638 -0.528,-1.375 -0.528,-2.212l0,-3.344c0,-0.907 0.176,-1.69 0.528,-2.348c0.352,-0.659 0.848,-1.166 1.488,-1.52c0.64,-0.355 1.392,-0.532 2.256,-0.532c0.56,-0 1.093,0.082 1.6,0.248c0.507,0.165 0.971,0.445 1.392,0.84l-1.552,1.552c-0.192,-0.192 -0.413,-0.342 -0.664,-0.448c-0.251,-0.107 -0.509,-0.16 -0.776,-0.16c-0.416,-0 -0.777,0.097 -1.084,0.292c-0.307,0.194 -0.544,0.448 -0.712,0.76c-0.168,0.312 -0.252,0.644 -0.252,0.996l0,1.712l-0.368,-0.4c0.331,-0.336 0.713,-0.594 1.148,-0.772c0.435,-0.179 0.884,-0.268 1.348,-0.268c0.725,-0 1.364,0.162 1.916,0.488c0.552,0.325 0.984,0.77 1.296,1.336c0.312,0.565 0.468,1.21 0.468,1.936c0,0.725 -0.184,1.38 -0.552,1.964c-0.368,0.584 -0.856,1.048 -1.464,1.392c-0.608,0.344 -1.275,0.516 -2,0.516Zm0,-2.08c0.331,-0 0.633,-0.08 0.908,-0.24c0.275,-0.16 0.493,-0.376 0.656,-0.648c0.163,-0.272 0.244,-0.574 0.244,-0.904c0,-0.331 -0.08,-0.634 -0.24,-0.908c-0.16,-0.275 -0.376,-0.494 -0.648,-0.656c-0.272,-0.163 -0.573,-0.244 -0.904,-0.244c-0.331,-0 -0.633,0.081 -0.908,0.244c-0.275,0.162 -0.493,0.381 -0.656,0.656c-0.163,0.274 -0.244,0.577 -0.244,0.908c0,0.32 0.08,0.616 0.24,0.888c0.16,0.272 0.376,0.49 0.648,0.656c0.272,0.165 0.573,0.248 0.904,0.248Z" style="fill-rule:nonzero;"/><path d="M116.394,367.86c-0.576,-0 -1.125,-0.116 -1.648,-0.348c-0.523,-0.232 -0.977,-0.559 -1.364,-0.98c-0.387,-0.422 -0.663,-0.918 -0.828,-1.488l2.112,-0.56c0.112,0.421 0.332,0.748 0.66,0.98c0.328,0.232 0.684,0.348 1.068,0.348c0.331,-0 0.633,-0.08 0.908,-0.24c0.275,-0.16 0.493,-0.376 0.656,-0.648c0.163,-0.272 0.244,-0.574 0.244,-0.904c0,-0.496 -0.169,-0.922 -0.508,-1.276c-0.339,-0.355 -0.772,-0.532 -1.3,-0.532c-0.16,-0 -0.315,0.022 -0.464,0.068c-0.149,0.045 -0.293,0.108 -0.432,0.188l-0.976,-1.712l3.664,-3.04l0.16,0.464l-5.344,-0l0,-2.048l7.2,-0l0,2.048l-2.848,2.752l-0.016,-0.608c0.661,0.101 1.22,0.332 1.676,0.692c0.456,0.36 0.803,0.802 1.04,1.328c0.237,0.525 0.356,1.084 0.356,1.676c0,0.725 -0.184,1.377 -0.552,1.956c-0.368,0.578 -0.856,1.037 -1.464,1.376c-0.608,0.338 -1.275,0.508 -2,0.508Z" style="fill-rule:nonzero;"/><path d="M121.978,367.652l0,-11.52l4.608,-0c0.821,-0 1.485,0.164 1.992,0.492c0.507,0.328 0.877,0.74 1.112,1.236c0.235,0.496 0.352,0.997 0.352,1.504c0,0.645 -0.145,1.181 -0.436,1.608c-0.291,0.426 -0.689,0.712 -1.196,0.856l0,-0.4c0.72,0.149 1.26,0.482 1.62,1c0.36,0.517 0.54,1.096 0.54,1.736c0,0.688 -0.127,1.293 -0.38,1.816c-0.253,0.522 -0.639,0.932 -1.156,1.228c-0.517,0.296 -1.168,0.444 -1.952,0.444l-5.104,-0Zm2.208,-2.048l2.672,-0c0.293,-0 0.555,-0.063 0.784,-0.188c0.229,-0.126 0.409,-0.302 0.54,-0.528c0.131,-0.227 0.196,-0.495 0.196,-0.804c0,-0.272 -0.056,-0.515 -0.168,-0.728c-0.112,-0.214 -0.281,-0.383 -0.508,-0.508c-0.227,-0.126 -0.508,-0.188 -0.844,-0.188l-2.672,-0l0,2.944Zm0,-4.976l2.368,-0c0.245,-0 0.464,-0.043 0.656,-0.128c0.192,-0.086 0.344,-0.218 0.456,-0.396c0.112,-0.179 0.168,-0.41 0.168,-0.692c0,-0.352 -0.109,-0.648 -0.328,-0.888c-0.219,-0.24 -0.536,-0.36 -0.952,-0.36l-2.368,-0l0,2.464Z" style="fill-rule:nonzero;"/></g><g><path d="M172.645,361.892c-0,4.967 -4.033,9 -9,9c-4.968,-0 -9,-4.033 -9,-9c-0,-4.968 4.032,-9 9,-9c4.967,-0 9,4.032 9,9Z" style="fill:#2f0c7a;"/><path d="M179.835,367.636l0.816,-3.008l-2.784,-0l0.544,-2.048l2.784,-0l0.432,-1.648l-2.784,-0l0.56,-2.032l2.768,-0l0.752,-2.768l2.112,-0l-0.752,2.768l1.728,-0l0.752,-2.768l2.112,-0l-0.752,2.768l2.784,-0l-0.544,2.032l-2.784,-0l-0.448,1.648l2.784,-0l-0.544,2.048l-2.784,-0l-0.8,3.008l-2.112,-0l0.8,-3.008l-1.728,-0l-0.8,3.008l-2.112,-0Zm3.472,-5.056l1.712,-0l0.448,-1.648l-1.728,-0l-0.432,1.648Z" style="fill-rule:nonzero;"/><path d="M192.715,367.636l0,-1.888l4.832,-4.288c0.363,-0.32 0.619,-0.622 0.768,-0.904c0.15,-0.283 0.224,-0.547 0.224,-0.792c0,-0.352 -0.072,-0.666 -0.216,-0.94c-0.144,-0.275 -0.346,-0.491 -0.608,-0.648c-0.261,-0.158 -0.568,-0.236 -0.92,-0.236c-0.368,-0 -0.692,0.084 -0.972,0.252c-0.28,0.168 -0.497,0.389 -0.652,0.664c-0.154,0.274 -0.226,0.572 -0.216,0.892l-2.24,-0c0,-0.79 0.174,-1.472 0.52,-2.048c0.347,-0.576 0.83,-1.022 1.448,-1.336c0.619,-0.315 1.339,-0.472 2.16,-0.472c0.752,-0 1.426,0.164 2.02,0.492c0.595,0.328 1.063,0.785 1.404,1.372c0.342,0.586 0.512,1.266 0.512,2.04c0,0.57 -0.08,1.044 -0.24,1.42c-0.16,0.376 -0.397,0.722 -0.712,1.04c-0.314,0.317 -0.701,0.676 -1.16,1.076l-3.12,2.736l-0.176,-0.48l5.408,-0l0,2.048l-8.064,-0Z" style="fill-rule:nonzero;"/><path d="M202.283,367.652l0,-11.52l7.04,-0l0,2.176l-4.864,-0l0,2.496l3.904,-0l0,2.176l-3.904,-0l0,4.672l-2.176,-0Z" style="fill-rule:nonzero;"/><path d="M214.795,367.892c-0.853,-0 -1.6,-0.179 -2.24,-0.536c-0.64,-0.358 -1.138,-0.856 -1.496,-1.496c-0.357,-0.64 -0.536,-1.387 -0.536,-2.24l0,-3.456c0,-0.854 0.179,-1.6 0.536,-2.24c0.358,-0.64 0.856,-1.139 1.496,-1.496c0.64,-0.358 1.387,-0.536 2.24,-0.536c0.854,-0 1.6,0.178 2.24,0.536c0.64,0.357 1.139,0.856 1.496,1.496c0.358,0.64 0.536,1.386 0.536,2.24l0,3.456c0,0.853 -0.178,1.6 -0.536,2.24c-0.357,0.64 -0.856,1.138 -1.496,1.496c-0.64,0.357 -1.386,0.536 -2.24,0.536Zm0,-2.064c0.384,-0 0.731,-0.091 1.04,-0.272c0.31,-0.182 0.555,-0.427 0.736,-0.736c0.182,-0.31 0.272,-0.656 0.272,-1.04l0,-3.792c0,-0.384 -0.09,-0.731 -0.272,-1.04c-0.181,-0.31 -0.426,-0.555 -0.736,-0.736c-0.309,-0.182 -0.656,-0.272 -1.04,-0.272c-0.384,-0 -0.73,0.09 -1.04,0.272c-0.309,0.181 -0.554,0.426 -0.736,0.736c-0.181,0.309 -0.272,0.656 -0.272,1.04l0,3.792c0,0.384 0.091,0.73 0.272,1.04c0.182,0.309 0.427,0.554 0.736,0.736c0.31,0.181 0.656,0.272 1.04,0.272Z" style="fill-rule:nonzero;"/><path d="M225.115,367.892c-1.152,-0 -2.145,-0.251 -2.98,-0.752c-0.834,-0.502 -1.477,-1.203 -1.928,-2.104c-0.45,-0.902 -0.676,-1.95 -0.676,-3.144c0,-1.195 0.226,-2.243 0.676,-3.144c0.451,-0.902 1.094,-1.603 1.928,-2.104c0.835,-0.502 1.828,-0.752 2.98,-0.752c1.323,-0 2.434,0.328 3.332,0.984c0.899,0.656 1.532,1.544 1.9,2.664l-2.192,0.608c-0.213,-0.699 -0.573,-1.242 -1.08,-1.628c-0.506,-0.387 -1.16,-0.58 -1.96,-0.58c-0.73,-0 -1.34,0.162 -1.828,0.488c-0.488,0.325 -0.854,0.784 -1.1,1.376c-0.245,0.592 -0.368,1.288 -0.368,2.088c0,0.8 0.123,1.496 0.368,2.088c0.246,0.592 0.612,1.05 1.1,1.376c0.488,0.325 1.098,0.488 1.828,0.488c0.8,-0 1.454,-0.195 1.96,-0.584c0.507,-0.39 0.867,-0.931 1.08,-1.624l2.192,0.608c-0.368,1.12 -1.001,2.008 -1.9,2.664c-0.898,0.656 -2.009,0.984 -3.332,0.984Z" style="fill-rule:nonzero;"/><path d="M232.347,367.652l3.872,-9.472l-4.928,-0l0,-2.048l7.264,-0l0,2.048l-3.856,9.472l-2.352,-0Z" style="fill-rule:nonzero;"/><path d="M238.427,367.652l3.52,-11.52l3.248,-0l3.52,11.52l-2.24,-0l-3.136,-10.16l0.416,-0l-3.088,10.16l-2.24,-0Zm2.112,-2.4l0,-2.032l6.08,-0l0,2.032l-6.08,-0Z" style="fill-rule:nonzero;"/></g><g><path d="M286.838,361.892c-0,4.967 -4.033,9 -9,9c-4.967,-0 -9,-4.033 -9,-9c-0,-4.968 4.033,-9 9,-9c4.967,-0 9,4.032 9,9Z" style="fill:#858afa;"/><path d="M294.029,367.636l0.816,-3.008l-2.784,-0l0.544,-2.048l2.784,-0l0.432,-1.648l-2.784,-0l0.56,-2.032l2.768,-0l0.752,-2.768l2.112,-0l-0.752,2.768l1.728,-0l0.752,-2.768l2.112,-0l-0.752,2.768l2.784,-0l-0.544,2.032l-2.784,-0l-0.448,1.648l2.784,-0l-0.544,2.048l-2.784,-0l-0.8,3.008l-2.112,-0l0.8,-3.008l-1.728,-0l-0.8,3.008l-2.112,-0Zm3.472,-5.056l1.712,-0l0.448,-1.648l-1.728,-0l-0.432,1.648Z" style="fill-rule:nonzero;"/><path d="M311.085,367.892c-0.779,-0 -1.471,-0.159 -2.076,-0.476c-0.606,-0.318 -1.08,-0.755 -1.424,-1.312c-0.344,-0.558 -0.516,-1.194 -0.516,-1.908c-0,-0.608 0.137,-1.182 0.412,-1.72c0.274,-0.539 0.67,-0.979 1.188,-1.32l-0.048,0.672c-0.39,-0.379 -0.695,-0.779 -0.916,-1.2c-0.222,-0.422 -0.332,-0.896 -0.332,-1.424c-0,-0.667 0.158,-1.248 0.476,-1.744c0.317,-0.496 0.754,-0.882 1.312,-1.156c0.557,-0.275 1.198,-0.412 1.924,-0.412c0.725,-0 1.366,0.137 1.924,0.412c0.557,0.274 0.994,0.66 1.312,1.156c0.317,0.496 0.476,1.077 0.476,1.744c-0,0.528 -0.104,1.001 -0.312,1.42c-0.208,0.418 -0.526,0.825 -0.952,1.22l-0,-0.672c0.506,0.32 0.897,0.752 1.172,1.296c0.274,0.544 0.412,1.12 0.412,1.728c-0,0.714 -0.174,1.35 -0.52,1.908c-0.347,0.557 -0.824,0.994 -1.432,1.312c-0.608,0.317 -1.302,0.476 -2.08,0.476Zm-0,-2.048c0.512,-0 0.928,-0.139 1.248,-0.416c0.32,-0.278 0.48,-0.688 0.48,-1.232c-0,-0.539 -0.16,-0.951 -0.48,-1.236c-0.32,-0.286 -0.736,-0.428 -1.248,-0.428c-0.512,-0 -0.926,0.142 -1.24,0.428c-0.315,0.285 -0.472,0.697 -0.472,1.236c-0,0.544 0.157,0.954 0.472,1.232c0.314,0.277 0.728,0.416 1.24,0.416Zm-0,-5.376c0.416,-0 0.754,-0.103 1.016,-0.308c0.261,-0.206 0.392,-0.524 0.392,-0.956c-0,-0.432 -0.131,-0.754 -0.392,-0.964c-0.262,-0.211 -0.6,-0.316 -1.016,-0.316c-0.416,-0 -0.755,0.105 -1.016,0.316c-0.262,0.21 -0.392,0.532 -0.392,0.964c-0,0.432 0.13,0.75 0.392,0.956c0.261,0.205 0.6,0.308 1.016,0.308Z" style="fill-rule:nonzero;"/><path d="M319.997,367.892c-0.582,-0 -1.127,-0.12 -1.636,-0.36c-0.51,-0.24 -0.948,-0.574 -1.316,-1c-0.368,-0.427 -0.632,-0.923 -0.792,-1.488l2.096,-0.56c0.069,0.272 0.193,0.506 0.372,0.704c0.178,0.197 0.386,0.35 0.624,0.46c0.237,0.109 0.481,0.164 0.732,0.164c0.33,-0 0.633,-0.08 0.908,-0.24c0.274,-0.16 0.493,-0.376 0.656,-0.648c0.162,-0.272 0.244,-0.574 0.244,-0.904c-0,-0.331 -0.082,-0.632 -0.244,-0.904c-0.163,-0.272 -0.382,-0.488 -0.656,-0.648c-0.275,-0.16 -0.578,-0.24 -0.908,-0.24c-0.406,-0 -0.736,0.068 -0.992,0.204c-0.256,0.136 -0.448,0.265 -0.576,0.388l-1.84,-0.56l0.352,-6.128l6.288,-0l-0,2.032l-5.088,-0l0.768,-0.72l-0.24,3.952l-0.368,-0.448c0.288,-0.235 0.616,-0.406 0.984,-0.512c0.368,-0.107 0.712,-0.16 1.032,-0.16c0.725,-0 1.364,0.161 1.916,0.484c0.552,0.322 0.984,0.765 1.296,1.328c0.312,0.562 0.468,1.206 0.468,1.932c-0,0.725 -0.19,1.38 -0.568,1.964c-0.379,0.584 -0.878,1.048 -1.496,1.392c-0.619,0.344 -1.291,0.516 -2.016,0.516Z" style="fill-rule:nonzero;"/><path d="M329.981,367.892c-0.779,-0 -1.471,-0.159 -2.076,-0.476c-0.606,-0.318 -1.08,-0.755 -1.424,-1.312c-0.344,-0.558 -0.516,-1.194 -0.516,-1.908c-0,-0.608 0.137,-1.182 0.412,-1.72c0.274,-0.539 0.67,-0.979 1.188,-1.32l-0.048,0.672c-0.39,-0.379 -0.695,-0.779 -0.916,-1.2c-0.222,-0.422 -0.332,-0.896 -0.332,-1.424c-0,-0.667 0.158,-1.248 0.476,-1.744c0.317,-0.496 0.754,-0.882 1.312,-1.156c0.557,-0.275 1.198,-0.412 1.924,-0.412c0.725,-0 1.366,0.137 1.924,0.412c0.557,0.274 0.994,0.66 1.312,1.156c0.317,0.496 0.476,1.077 0.476,1.744c-0,0.528 -0.104,1.001 -0.312,1.42c-0.208,0.418 -0.526,0.825 -0.952,1.22l-0,-0.672c0.506,0.32 0.897,0.752 1.172,1.296c0.274,0.544 0.412,1.12 0.412,1.728c-0,0.714 -0.174,1.35 -0.52,1.908c-0.347,0.557 -0.824,0.994 -1.432,1.312c-0.608,0.317 -1.302,0.476 -2.08,0.476Zm-0,-2.048c0.512,-0 0.928,-0.139 1.248,-0.416c0.32,-0.278 0.48,-0.688 0.48,-1.232c-0,-0.539 -0.16,-0.951 -0.48,-1.236c-0.32,-0.286 -0.736,-0.428 -1.248,-0.428c-0.512,-0 -0.926,0.142 -1.24,0.428c-0.315,0.285 -0.472,0.697 -0.472,1.236c-0,0.544 0.157,0.954 0.472,1.232c0.314,0.277 0.728,0.416 1.24,0.416Zm-0,-5.376c0.416,-0 0.754,-0.103 1.016,-0.308c0.261,-0.206 0.392,-0.524 0.392,-0.956c-0,-0.432 -0.131,-0.754 -0.392,-0.964c-0.262,-0.211 -0.6,-0.316 -1.016,-0.316c-0.416,-0 -0.755,0.105 -1.016,0.316c-0.262,0.21 -0.392,0.532 -0.392,0.964c-0,0.432 0.13,0.75 0.392,0.956c0.261,0.205 0.6,0.308 1.016,0.308Z" style="fill-rule:nonzero;"/><path d="M334.669,367.652l3.52,-11.52l3.248,-0l3.52,11.52l-2.24,-0l-3.136,-10.16l0.416,-0l-3.088,10.16l-2.24,-0Zm2.112,-2.4l-0,-2.032l6.08,-0l-0,2.032l-6.08,-0Z" style="fill-rule:nonzero;"/><path d="M345.613,367.652l-0,-11.52l7.04,-0l-0,2.176l-4.864,-0l-0,2.496l3.904,-0l-0,2.176l-3.904,-0l-0,4.672l-2.176,-0Z" style="fill-rule:nonzero;"/><path d="M352.893,367.652l3.52,-11.52l3.248,-0l3.52,11.52l-2.24,-0l-3.136,-10.16l0.416,-0l-3.088,10.16l-2.24,-0Zm2.112,-2.4l-0,-2.032l6.08,-0l-0,2.032l-6.08,-0Z" style="fill-rule:nonzero;"/></g></g><g><g><path d="M113.316,331.998c-0,4.967 -4.033,9 -9,9c-4.967,-0 -9,-4.033 -9,-9c-0,-4.967 4.033,-9 9,-9c4.967,-0 9,4.033 9,9Z" style="fill:#6364ff;"/><path d="M120.507,337.742l0.816,-3.008l-2.784,-0l0.544,-2.048l2.784,-0l0.432,-1.648l-2.784,-0l0.56,-2.032l2.768,-0l0.752,-2.768l2.112,-0l-0.752,2.768l1.728,-0l0.752,-2.768l2.112,-0l-0.752,2.768l2.784,-0l-0.544,2.032l-2.784,-0l-0.448,1.648l2.784,-0l-0.544,2.048l-2.784,-0l-0.8,3.008l-2.112,-0l0.8,-3.008l-1.728,-0l-0.8,3.008l-2.112,-0Zm3.472,-5.056l1.712,-0l0.448,-1.648l-1.728,-0l-0.432,1.648Z" style="fill-rule:nonzero;"/><path d="M137.723,337.998c-0.763,-0 -1.447,-0.179 -2.052,-0.536c-0.606,-0.358 -1.084,-0.855 -1.436,-1.492c-0.352,-0.638 -0.528,-1.375 -0.528,-2.212l-0,-3.344c-0,-0.907 0.176,-1.69 0.528,-2.348c0.352,-0.659 0.848,-1.166 1.488,-1.52c0.64,-0.355 1.392,-0.532 2.256,-0.532c0.56,-0 1.093,0.082 1.6,0.248c0.506,0.165 0.97,0.445 1.392,0.84l-1.552,1.552c-0.192,-0.192 -0.414,-0.342 -0.664,-0.448c-0.251,-0.107 -0.51,-0.16 -0.776,-0.16c-0.416,-0 -0.778,0.097 -1.084,0.292c-0.307,0.194 -0.544,0.448 -0.712,0.76c-0.168,0.312 -0.252,0.644 -0.252,0.996l-0,1.712l-0.368,-0.4c0.33,-0.336 0.713,-0.594 1.148,-0.772c0.434,-0.179 0.884,-0.268 1.348,-0.268c0.725,-0 1.364,0.162 1.916,0.488c0.552,0.325 0.984,0.77 1.296,1.336c0.312,0.565 0.468,1.21 0.468,1.936c-0,0.725 -0.184,1.38 -0.552,1.964c-0.368,0.584 -0.856,1.048 -1.464,1.392c-0.608,0.344 -1.275,0.516 -2,0.516Zm-0,-2.08c0.33,-0 0.633,-0.08 0.908,-0.24c0.274,-0.16 0.493,-0.376 0.656,-0.648c0.162,-0.272 0.244,-0.574 0.244,-0.904c-0,-0.331 -0.08,-0.634 -0.24,-0.908c-0.16,-0.275 -0.376,-0.494 -0.648,-0.656c-0.272,-0.163 -0.574,-0.244 -0.904,-0.244c-0.331,-0 -0.634,0.081 -0.908,0.244c-0.275,0.162 -0.494,0.381 -0.656,0.656c-0.163,0.274 -0.244,0.577 -0.244,0.908c-0,0.32 0.08,0.616 0.24,0.888c0.16,0.272 0.376,0.49 0.648,0.656c0.272,0.165 0.573,0.248 0.904,0.248Z" style="fill-rule:nonzero;"/><path d="M147.387,337.966c-0.576,-0 -1.126,-0.116 -1.648,-0.348c-0.523,-0.232 -0.978,-0.559 -1.364,-0.98c-0.387,-0.422 -0.663,-0.918 -0.828,-1.488l2.112,-0.56c0.112,0.421 0.332,0.748 0.66,0.98c0.328,0.232 0.684,0.348 1.068,0.348c0.33,-0 0.633,-0.08 0.908,-0.24c0.274,-0.16 0.493,-0.376 0.656,-0.648c0.162,-0.272 0.244,-0.574 0.244,-0.904c-0,-0.496 -0.17,-0.922 -0.508,-1.276c-0.339,-0.355 -0.772,-0.532 -1.3,-0.532c-0.16,-0 -0.315,0.022 -0.464,0.068c-0.15,0.045 -0.294,0.108 -0.432,0.188l-0.976,-1.712l3.664,-3.04l0.16,0.464l-5.344,-0l-0,-2.048l7.2,-0l-0,2.048l-2.848,2.752l-0.016,-0.608c0.661,0.101 1.22,0.332 1.676,0.692c0.456,0.36 0.802,0.802 1.04,1.328c0.237,0.525 0.356,1.084 0.356,1.676c-0,0.725 -0.184,1.377 -0.552,1.956c-0.368,0.578 -0.856,1.037 -1.464,1.376c-0.608,0.338 -1.275,0.508 -2,0.508Z" style="fill-rule:nonzero;"/><path d="M156.987,337.998c-0.763,-0 -1.447,-0.179 -2.052,-0.536c-0.606,-0.358 -1.084,-0.855 -1.436,-1.492c-0.352,-0.638 -0.528,-1.375 -0.528,-2.212l-0,-3.344c-0,-0.907 0.176,-1.69 0.528,-2.348c0.352,-0.659 0.848,-1.166 1.488,-1.52c0.64,-0.355 1.392,-0.532 2.256,-0.532c0.56,-0 1.093,0.082 1.6,0.248c0.506,0.165 0.97,0.445 1.392,0.84l-1.552,1.552c-0.192,-0.192 -0.414,-0.342 -0.664,-0.448c-0.251,-0.107 -0.51,-0.16 -0.776,-0.16c-0.416,-0 -0.778,0.097 -1.084,0.292c-0.307,0.194 -0.544,0.448 -0.712,0.76c-0.168,0.312 -0.252,0.644 -0.252,0.996l-0,1.712l-0.368,-0.4c0.33,-0.336 0.713,-0.594 1.148,-0.772c0.434,-0.179 0.884,-0.268 1.348,-0.268c0.725,-0 1.364,0.162 1.916,0.488c0.552,0.325 0.984,0.77 1.296,1.336c0.312,0.565 0.468,1.21 0.468,1.936c-0,0.725 -0.184,1.38 -0.552,1.964c-0.368,0.584 -0.856,1.048 -1.464,1.392c-0.608,0.344 -1.275,0.516 -2,0.516Zm-0,-2.08c0.33,-0 0.633,-0.08 0.908,-0.24c0.274,-0.16 0.493,-0.376 0.656,-0.648c0.162,-0.272 0.244,-0.574 0.244,-0.904c-0,-0.331 -0.08,-0.634 -0.24,-0.908c-0.16,-0.275 -0.376,-0.494 -0.648,-0.656c-0.272,-0.163 -0.574,-0.244 -0.904,-0.244c-0.331,-0 -0.634,0.081 -0.908,0.244c-0.275,0.162 -0.494,0.381 -0.656,0.656c-0.163,0.274 -0.244,0.577 -0.244,0.908c-0,0.32 0.08,0.616 0.24,0.888c0.16,0.272 0.376,0.49 0.648,0.656c0.272,0.165 0.573,0.248 0.904,0.248Z" style="fill-rule:nonzero;"/><path d="M167.979,337.758l-0,-1.792l-5.008,-0l-0,-2.032l3.632,-7.696l2.496,-0l-3.632,7.696l2.512,-0l-0,-2.88l2.208,-0l-0,2.88l1.024,-0l-0,2.032l-1.024,-0l-0,1.792l-2.208,-0Z" style="fill-rule:nonzero;"/><path d="M172.923,337.758l-0,-11.52l7.04,-0l-0,2.176l-4.864,-0l-0,2.496l3.904,-0l-0,2.176l-3.904,-0l-0,4.672l-2.176,-0Z" style="fill-rule:nonzero;"/><path d="M181.163,337.758l-0,-11.52l7.04,-0l-0,2.176l-4.864,-0l-0,2.496l3.904,-0l-0,2.176l-3.904,-0l-0,4.672l-2.176,-0Z" style="fill-rule:nonzero;"/></g><g><path d="M227.509,331.998c0,4.967 -4.032,9 -9,9c-4.967,-0 -9,-4.033 -9,-9c0,-4.967 4.033,-9 9,-9c4.968,-0 9,4.033 9,9Z" style="fill:#563acc;"/><path d="M234.7,337.742l0.816,-3.008l-2.784,-0l0.544,-2.048l2.784,-0l0.432,-1.648l-2.784,-0l0.56,-2.032l2.768,-0l0.752,-2.768l2.112,-0l-0.752,2.768l1.728,-0l0.752,-2.768l2.112,-0l-0.752,2.768l2.784,-0l-0.544,2.032l-2.784,-0l-0.448,1.648l2.784,-0l-0.544,2.048l-2.784,-0l-0.8,3.008l-2.112,-0l0.8,-3.008l-1.728,-0l-0.8,3.008l-2.112,-0Zm3.472,-5.056l1.712,-0l0.448,-1.648l-1.728,-0l-0.432,1.648Z" style="fill-rule:nonzero;"/><path d="M251.324,337.998c-0.581,-0 -1.127,-0.12 -1.636,-0.36c-0.509,-0.24 -0.948,-0.574 -1.316,-1c-0.368,-0.427 -0.632,-0.923 -0.792,-1.488l2.096,-0.56c0.069,0.272 0.193,0.506 0.372,0.704c0.179,0.197 0.387,0.35 0.624,0.46c0.237,0.109 0.481,0.164 0.732,0.164c0.331,-0 0.633,-0.08 0.908,-0.24c0.275,-0.16 0.493,-0.376 0.656,-0.648c0.163,-0.272 0.244,-0.574 0.244,-0.904c0,-0.331 -0.081,-0.632 -0.244,-0.904c-0.163,-0.272 -0.381,-0.488 -0.656,-0.648c-0.275,-0.16 -0.577,-0.24 -0.908,-0.24c-0.405,-0 -0.736,0.068 -0.992,0.204c-0.256,0.136 -0.448,0.265 -0.576,0.388l-1.84,-0.56l0.352,-6.128l6.288,-0l0,2.032l-5.088,-0l0.768,-0.72l-0.24,3.952l-0.368,-0.448c0.288,-0.235 0.616,-0.406 0.984,-0.512c0.368,-0.107 0.712,-0.16 1.032,-0.16c0.725,-0 1.364,0.161 1.916,0.484c0.552,0.322 0.984,0.765 1.296,1.328c0.312,0.562 0.468,1.206 0.468,1.932c0,0.725 -0.189,1.38 -0.568,1.964c-0.379,0.584 -0.877,1.048 -1.496,1.392c-0.619,0.344 -1.291,0.516 -2.016,0.516Z" style="fill-rule:nonzero;"/><path d="M261.468,337.998c-0.763,-0 -1.447,-0.179 -2.052,-0.536c-0.605,-0.358 -1.084,-0.855 -1.436,-1.492c-0.352,-0.638 -0.528,-1.375 -0.528,-2.212l0,-3.344c0,-0.907 0.176,-1.69 0.528,-2.348c0.352,-0.659 0.848,-1.166 1.488,-1.52c0.64,-0.355 1.392,-0.532 2.256,-0.532c0.56,-0 1.093,0.082 1.6,0.248c0.507,0.165 0.971,0.445 1.392,0.84l-1.552,1.552c-0.192,-0.192 -0.413,-0.342 -0.664,-0.448c-0.251,-0.107 -0.509,-0.16 -0.776,-0.16c-0.416,-0 -0.777,0.097 -1.084,0.292c-0.307,0.194 -0.544,0.448 -0.712,0.76c-0.168,0.312 -0.252,0.644 -0.252,0.996l0,1.712l-0.368,-0.4c0.331,-0.336 0.713,-0.594 1.148,-0.772c0.435,-0.179 0.884,-0.268 1.348,-0.268c0.725,-0 1.364,0.162 1.916,0.488c0.552,0.325 0.984,0.77 1.296,1.336c0.312,0.565 0.468,1.21 0.468,1.936c0,0.725 -0.184,1.38 -0.552,1.964c-0.368,0.584 -0.856,1.048 -1.464,1.392c-0.608,0.344 -1.275,0.516 -2,0.516Zm0,-2.08c0.331,-0 0.633,-0.08 0.908,-0.24c0.275,-0.16 0.493,-0.376 0.656,-0.648c0.163,-0.272 0.244,-0.574 0.244,-0.904c0,-0.331 -0.08,-0.634 -0.24,-0.908c-0.16,-0.275 -0.376,-0.494 -0.648,-0.656c-0.272,-0.163 -0.573,-0.244 -0.904,-0.244c-0.331,-0 -0.633,0.081 -0.908,0.244c-0.275,0.162 -0.493,0.381 -0.656,0.656c-0.163,0.274 -0.244,0.577 -0.244,0.908c0,0.32 0.08,0.616 0.24,0.888c0.16,0.272 0.376,0.49 0.648,0.656c0.272,0.165 0.573,0.248 0.904,0.248Z" style="fill-rule:nonzero;"/><path d="M271.132,337.966c-0.576,-0 -1.125,-0.116 -1.648,-0.348c-0.523,-0.232 -0.977,-0.559 -1.364,-0.98c-0.387,-0.422 -0.663,-0.918 -0.828,-1.488l2.112,-0.56c0.112,0.421 0.332,0.748 0.66,0.98c0.328,0.232 0.684,0.348 1.068,0.348c0.331,-0 0.633,-0.08 0.908,-0.24c0.275,-0.16 0.493,-0.376 0.656,-0.648c0.163,-0.272 0.244,-0.574 0.244,-0.904c0,-0.496 -0.169,-0.922 -0.508,-1.276c-0.339,-0.355 -0.772,-0.532 -1.3,-0.532c-0.16,-0 -0.315,0.022 -0.464,0.068c-0.149,0.045 -0.293,0.108 -0.432,0.188l-0.976,-1.712l3.664,-3.04l0.16,0.464l-5.344,-0l0,-2.048l7.2,-0l0,2.048l-2.848,2.752l-0.016,-0.608c0.661,0.101 1.22,0.332 1.676,0.692c0.456,0.36 0.803,0.802 1.04,1.328c0.237,0.525 0.356,1.084 0.356,1.676c0,0.725 -0.184,1.377 -0.552,1.956c-0.368,0.578 -0.856,1.037 -1.464,1.376c-0.608,0.338 -1.275,0.508 -2,0.508Z" style="fill-rule:nonzero;"/><path d="M275.916,337.758l3.52,-11.52l3.248,-0l3.52,11.52l-2.24,-0l-3.136,-10.16l0.416,-0l-3.088,10.16l-2.24,-0Zm2.112,-2.4l0,-2.032l6.08,-0l0,2.032l-6.08,-0Z" style="fill-rule:nonzero;"/><path d="M291.484,337.998c-1.152,-0 -2.145,-0.251 -2.98,-0.752c-0.835,-0.502 -1.477,-1.203 -1.928,-2.104c-0.451,-0.902 -0.676,-1.95 -0.676,-3.144c0,-1.195 0.225,-2.243 0.676,-3.144c0.451,-0.902 1.093,-1.603 1.928,-2.104c0.835,-0.502 1.828,-0.752 2.98,-0.752c1.323,-0 2.433,0.328 3.332,0.984c0.899,0.656 1.532,1.544 1.9,2.664l-2.192,0.608c-0.213,-0.699 -0.573,-1.242 -1.08,-1.628c-0.507,-0.387 -1.16,-0.58 -1.96,-0.58c-0.731,-0 -1.34,0.162 -1.828,0.488c-0.488,0.325 -0.855,0.784 -1.1,1.376c-0.245,0.592 -0.368,1.288 -0.368,2.088c0,0.8 0.123,1.496 0.368,2.088c0.245,0.592 0.612,1.05 1.1,1.376c0.488,0.325 1.097,0.488 1.828,0.488c0.8,-0 1.453,-0.195 1.96,-0.584c0.507,-0.39 0.867,-0.931 1.08,-1.624l2.192,0.608c-0.368,1.12 -1.001,2.008 -1.9,2.664c-0.899,0.656 -2.009,0.984 -3.332,0.984Z" style="fill-rule:nonzero;"/><path d="M303.084,337.998c-1.152,-0 -2.145,-0.251 -2.98,-0.752c-0.835,-0.502 -1.477,-1.203 -1.928,-2.104c-0.451,-0.902 -0.676,-1.95 -0.676,-3.144c0,-1.195 0.225,-2.243 0.676,-3.144c0.451,-0.902 1.093,-1.603 1.928,-2.104c0.835,-0.502 1.828,-0.752 2.98,-0.752c1.323,-0 2.433,0.328 3.332,0.984c0.899,0.656 1.532,1.544 1.9,2.664l-2.192,0.608c-0.213,-0.699 -0.573,-1.242 -1.08,-1.628c-0.507,-0.387 -1.16,-0.58 -1.96,-0.58c-0.731,-0 -1.34,0.162 -1.828,0.488c-0.488,0.325 -0.855,0.784 -1.1,1.376c-0.245,0.592 -0.368,1.288 -0.368,2.088c0,0.8 0.123,1.496 0.368,2.088c0.245,0.592 0.612,1.05 1.1,1.376c0.488,0.325 1.097,0.488 1.828,0.488c0.8,-0 1.453,-0.195 1.96,-0.584c0.507,-0.39 0.867,-0.931 1.08,-1.624l2.192,0.608c-0.368,1.12 -1.001,2.008 -1.9,2.664c-0.899,0.656 -2.009,0.984 -3.332,0.984Z" style="fill-rule:nonzero;"/></g></g><path d="M105.576,294.243l-0,-17.28l2.928,0l5.712,11.472l5.712,-11.472l2.928,0l-0,17.28l-3.048,0l-0,-10.32l-5.016,10.32l-1.152,0l-5.016,-10.32l-0,10.32l-3.048,0Z" style="fill-rule:nonzero;"/><path d="M129.72,294.603c-0.928,0 -1.714,-0.178 -2.358,-0.534c-0.644,-0.356 -1.132,-0.832 -1.464,-1.428c-0.332,-0.596 -0.498,-1.254 -0.498,-1.974c-0,-0.6 0.092,-1.148 0.276,-1.644c0.184,-0.496 0.482,-0.934 0.894,-1.314c0.412,-0.38 0.966,-0.698 1.662,-0.954c0.48,-0.176 1.052,-0.332 1.716,-0.468c0.664,-0.136 1.416,-0.266 2.256,-0.39c0.84,-0.124 1.764,-0.262 2.772,-0.414l-1.176,0.648c-0,-0.768 -0.184,-1.332 -0.552,-1.692c-0.368,-0.36 -0.984,-0.54 -1.848,-0.54c-0.48,0 -0.98,0.116 -1.5,0.348c-0.52,0.232 -0.884,0.644 -1.092,1.236l-2.952,-0.936c0.328,-1.072 0.944,-1.944 1.848,-2.616c0.904,-0.672 2.136,-1.008 3.696,-1.008c1.144,0 2.16,0.176 3.048,0.528c0.888,0.352 1.56,0.96 2.016,1.824c0.256,0.48 0.408,0.96 0.456,1.44c0.048,0.48 0.072,1.016 0.072,1.608l-0,7.92l-2.856,0l-0,-2.664l0.408,0.552c-0.632,0.872 -1.314,1.502 -2.046,1.89c-0.732,0.388 -1.658,0.582 -2.778,0.582Zm0.696,-2.568c0.6,0 1.106,-0.106 1.518,-0.318c0.412,-0.212 0.74,-0.454 0.984,-0.726c0.244,-0.272 0.41,-0.5 0.498,-0.684c0.168,-0.352 0.266,-0.762 0.294,-1.23c0.028,-0.468 0.042,-0.858 0.042,-1.17l0.96,0.24c-0.968,0.16 -1.752,0.294 -2.352,0.402c-0.6,0.108 -1.084,0.206 -1.452,0.294c-0.368,0.088 -0.692,0.184 -0.972,0.288c-0.32,0.128 -0.578,0.266 -0.774,0.414c-0.196,0.148 -0.34,0.31 -0.432,0.486c-0.092,0.176 -0.138,0.372 -0.138,0.588c-0,0.296 0.074,0.55 0.222,0.762c0.148,0.212 0.358,0.374 0.63,0.486c0.272,0.112 0.596,0.168 0.972,0.168Z" style="fill-rule:nonzero;"/><path d="M144.792,294.603c-1.632,0 -2.95,-0.37 -3.954,-1.11c-1.004,-0.74 -1.614,-1.786 -1.83,-3.138l3.336,-0.504c0.136,0.608 0.438,1.084 0.906,1.428c0.468,0.344 1.062,0.516 1.782,0.516c0.592,0 1.048,-0.114 1.368,-0.342c0.32,-0.228 0.48,-0.546 0.48,-0.954c-0,-0.256 -0.064,-0.462 -0.192,-0.618c-0.128,-0.156 -0.414,-0.31 -0.858,-0.462c-0.444,-0.152 -1.134,-0.352 -2.07,-0.6c-1.056,-0.272 -1.9,-0.576 -2.532,-0.912c-0.632,-0.336 -1.088,-0.738 -1.368,-1.206c-0.28,-0.468 -0.42,-1.034 -0.42,-1.698c-0,-0.832 0.212,-1.554 0.636,-2.166c0.424,-0.612 1.022,-1.084 1.794,-1.416c0.772,-0.332 1.682,-0.498 2.73,-0.498c1.016,0 1.916,0.156 2.7,0.468c0.784,0.312 1.418,0.756 1.902,1.332c0.484,0.576 0.782,1.256 0.894,2.04l-3.336,0.6c-0.056,-0.48 -0.264,-0.86 -0.624,-1.14c-0.36,-0.28 -0.848,-0.444 -1.464,-0.492c-0.6,-0.04 -1.082,0.04 -1.446,0.24c-0.364,0.2 -0.546,0.488 -0.546,0.864c-0,0.224 0.078,0.412 0.234,0.564c0.156,0.152 0.48,0.308 0.972,0.468c0.492,0.16 1.242,0.368 2.25,0.624c0.984,0.256 1.774,0.554 2.37,0.894c0.596,0.34 1.03,0.748 1.302,1.224c0.272,0.476 0.408,1.05 0.408,1.722c-0,1.328 -0.48,2.372 -1.44,3.132c-0.96,0.76 -2.288,1.14 -3.984,1.14Z" style="fill-rule:nonzero;"/><path d="M160.44,294.243c-0.896,0.168 -1.774,0.242 -2.634,0.222c-0.86,-0.02 -1.628,-0.172 -2.304,-0.456c-0.676,-0.284 -1.19,-0.742 -1.542,-1.374c-0.32,-0.592 -0.488,-1.194 -0.504,-1.806c-0.016,-0.612 -0.024,-1.306 -0.024,-2.082l-0,-11.064l3.264,0l-0,10.872c-0,0.504 0.006,0.958 0.018,1.362c0.012,0.404 0.094,0.726 0.246,0.966c0.288,0.456 0.748,0.704 1.38,0.744c0.632,0.04 1.332,0.008 2.1,-0.096l-0,2.712Zm-9.216,-10.44l-0,-2.52l9.216,0l-0,2.52l-9.216,0Z" style="fill-rule:nonzero;"/><path d="M167.832,294.603c-1.304,0 -2.448,-0.292 -3.432,-0.876c-0.984,-0.584 -1.75,-1.39 -2.298,-2.418c-0.548,-1.028 -0.822,-2.21 -0.822,-3.546c-0,-1.352 0.28,-2.542 0.84,-3.57c0.56,-1.028 1.332,-1.83 2.316,-2.406c0.984,-0.576 2.116,-0.864 3.396,-0.864c1.304,0 2.45,0.292 3.438,0.876c0.988,0.584 1.758,1.39 2.31,2.418c0.552,1.028 0.828,2.21 0.828,3.546c-0,1.344 -0.278,2.53 -0.834,3.558c-0.556,1.028 -1.328,1.832 -2.316,2.412c-0.988,0.58 -2.13,0.87 -3.426,0.87Zm-0,-3.048c1.048,0 1.83,-0.354 2.346,-1.062c0.516,-0.708 0.774,-1.618 0.774,-2.73c-0,-1.152 -0.262,-2.072 -0.786,-2.76c-0.524,-0.688 -1.302,-1.032 -2.334,-1.032c-0.712,0 -1.296,0.16 -1.752,0.48c-0.456,0.32 -0.794,0.764 -1.014,1.332c-0.22,0.568 -0.33,1.228 -0.33,1.98c-0,1.16 0.262,2.082 0.786,2.766c0.524,0.684 1.294,1.026 2.31,1.026Z" style="fill-rule:nonzero;"/><path d="M181.632,294.603c-1.192,0 -2.236,-0.3 -3.132,-0.9c-0.896,-0.6 -1.594,-1.416 -2.094,-2.448c-0.5,-1.032 -0.75,-2.196 -0.75,-3.492c-0,-1.32 0.254,-2.494 0.762,-3.522c0.508,-1.028 1.222,-1.838 2.142,-2.43c0.92,-0.592 2,-0.888 3.24,-0.888c1.232,0 2.268,0.3 3.108,0.9c0.84,0.6 1.476,1.416 1.908,2.448c0.432,1.032 0.648,2.196 0.648,3.492c-0,1.296 -0.218,2.46 -0.654,3.492c-0.436,1.032 -1.086,1.848 -1.95,2.448c-0.864,0.6 -1.94,0.9 -3.228,0.9Zm0.528,-2.904c0.728,0 1.31,-0.164 1.746,-0.492c0.436,-0.328 0.75,-0.788 0.942,-1.38c0.192,-0.592 0.288,-1.28 0.288,-2.064c-0,-0.784 -0.096,-1.472 -0.288,-2.064c-0.192,-0.592 -0.498,-1.052 -0.918,-1.38c-0.42,-0.328 -0.97,-0.492 -1.65,-0.492c-0.728,0 -1.326,0.178 -1.794,0.534c-0.468,0.356 -0.814,0.832 -1.038,1.428c-0.224,0.596 -0.336,1.254 -0.336,1.974c-0,0.728 0.108,1.39 0.324,1.986c0.216,0.596 0.548,1.07 0.996,1.422c0.448,0.352 1.024,0.528 1.728,0.528Zm2.976,2.544l-0,-8.88l-0.408,0l-0,-8.4l3.288,0l-0,17.28l-2.88,0Z" style="fill-rule:nonzero;"/><path d="M196.632,294.603c-1.304,0 -2.448,-0.292 -3.432,-0.876c-0.984,-0.584 -1.75,-1.39 -2.298,-2.418c-0.548,-1.028 -0.822,-2.21 -0.822,-3.546c-0,-1.352 0.28,-2.542 0.84,-3.57c0.56,-1.028 1.332,-1.83 2.316,-2.406c0.984,-0.576 2.116,-0.864 3.396,-0.864c1.304,0 2.45,0.292 3.438,0.876c0.988,0.584 1.758,1.39 2.31,2.418c0.552,1.028 0.828,2.21 0.828,3.546c-0,1.344 -0.278,2.53 -0.834,3.558c-0.556,1.028 -1.328,1.832 -2.316,2.412c-0.988,0.58 -2.13,0.87 -3.426,0.87Zm-0,-3.048c1.048,0 1.83,-0.354 2.346,-1.062c0.516,-0.708 0.774,-1.618 0.774,-2.73c-0,-1.152 -0.262,-2.072 -0.786,-2.76c-0.524,-0.688 -1.302,-1.032 -2.334,-1.032c-0.712,0 -1.296,0.16 -1.752,0.48c-0.456,0.32 -0.794,0.764 -1.014,1.332c-0.22,0.568 -0.33,1.228 -0.33,1.98c-0,1.16 0.262,2.082 0.786,2.766c0.524,0.684 1.294,1.026 2.31,1.026Z" style="fill-rule:nonzero;"/><path d="M214.008,294.243l-0,-6.12c-0,-0.296 -0.016,-0.674 -0.048,-1.134c-0.032,-0.46 -0.132,-0.922 -0.3,-1.386c-0.168,-0.464 -0.442,-0.852 -0.822,-1.164c-0.38,-0.312 -0.918,-0.468 -1.614,-0.468c-0.28,0 -0.58,0.044 -0.9,0.132c-0.32,0.088 -0.62,0.258 -0.9,0.51c-0.28,0.252 -0.51,0.622 -0.69,1.11c-0.18,0.488 -0.27,1.136 -0.27,1.944l-1.872,-0.888c-0,-1.024 0.208,-1.984 0.624,-2.88c0.416,-0.896 1.042,-1.62 1.878,-2.172c0.836,-0.552 1.89,-0.828 3.162,-0.828c1.016,0 1.844,0.172 2.484,0.516c0.64,0.344 1.138,0.78 1.494,1.308c0.356,0.528 0.61,1.078 0.762,1.65c0.152,0.572 0.244,1.094 0.276,1.566c0.032,0.472 0.048,0.816 0.048,1.032l-0,7.272l-3.312,0Zm-8.856,0l-0,-12.96l2.904,0l-0,4.296l0.408,0l-0,8.664l-3.312,0Z" style="fill-rule:nonzero;"/><path d="M232.344,294.603c-1.728,0 -3.218,-0.376 -4.47,-1.128c-1.252,-0.752 -2.216,-1.804 -2.892,-3.156c-0.676,-1.352 -1.014,-2.924 -1.014,-4.716c-0,-1.792 0.338,-3.364 1.014,-4.716c0.676,-1.352 1.64,-2.404 2.892,-3.156c1.252,-0.752 2.742,-1.128 4.47,-1.128c1.984,0 3.65,0.492 4.998,1.476c1.348,0.984 2.298,2.316 2.85,3.996l-3.288,0.912c-0.32,-1.048 -0.86,-1.862 -1.62,-2.442c-0.76,-0.58 -1.74,-0.87 -2.94,-0.87c-1.096,0 -2.01,0.244 -2.742,0.732c-0.732,0.488 -1.282,1.176 -1.65,2.064c-0.368,0.888 -0.552,1.932 -0.552,3.132c-0,1.2 0.184,2.244 0.552,3.132c0.368,0.888 0.918,1.576 1.65,2.064c0.732,0.488 1.646,0.732 2.742,0.732c1.2,0 2.18,-0.292 2.94,-0.876c0.76,-0.584 1.3,-1.396 1.62,-2.436l3.288,0.912c-0.552,1.68 -1.502,3.012 -2.85,3.996c-1.348,0.984 -3.014,1.476 -4.998,1.476Z" style="fill-rule:nonzero;"/><path d="M248.16,294.603c-1.304,0 -2.448,-0.292 -3.432,-0.876c-0.984,-0.584 -1.75,-1.39 -2.298,-2.418c-0.548,-1.028 -0.822,-2.21 -0.822,-3.546c-0,-1.352 0.28,-2.542 0.84,-3.57c0.56,-1.028 1.332,-1.83 2.316,-2.406c0.984,-0.576 2.116,-0.864 3.396,-0.864c1.304,0 2.45,0.292 3.438,0.876c0.988,0.584 1.758,1.39 2.31,2.418c0.552,1.028 0.828,2.21 0.828,3.546c-0,1.344 -0.278,2.53 -0.834,3.558c-0.556,1.028 -1.328,1.832 -2.316,2.412c-0.988,0.58 -2.13,0.87 -3.426,0.87Zm-0,-3.048c1.048,0 1.83,-0.354 2.346,-1.062c0.516,-0.708 0.774,-1.618 0.774,-2.73c-0,-1.152 -0.262,-2.072 -0.786,-2.76c-0.524,-0.688 -1.302,-1.032 -2.334,-1.032c-0.712,0 -1.296,0.16 -1.752,0.48c-0.456,0.32 -0.794,0.764 -1.014,1.332c-0.22,0.568 -0.33,1.228 -0.33,1.98c-0,1.16 0.262,2.082 0.786,2.766c0.524,0.684 1.294,1.026 2.31,1.026Z" style="fill-rule:nonzero;"/><rect x="256.944" y="276.603" width="3.264" height="17.64" style="fill-rule:nonzero;"/><path d="M267.984,294.603c-1.304,0 -2.448,-0.292 -3.432,-0.876c-0.984,-0.584 -1.75,-1.39 -2.298,-2.418c-0.548,-1.028 -0.822,-2.21 -0.822,-3.546c-0,-1.352 0.28,-2.542 0.84,-3.57c0.56,-1.028 1.332,-1.83 2.316,-2.406c0.984,-0.576 2.116,-0.864 3.396,-0.864c1.304,0 2.45,0.292 3.438,0.876c0.988,0.584 1.758,1.39 2.31,2.418c0.552,1.028 0.828,2.21 0.828,3.546c-0,1.344 -0.278,2.53 -0.834,3.558c-0.556,1.028 -1.328,1.832 -2.316,2.412c-0.988,0.58 -2.13,0.87 -3.426,0.87Zm-0,-3.048c1.048,0 1.83,-0.354 2.346,-1.062c0.516,-0.708 0.774,-1.618 0.774,-2.73c-0,-1.152 -0.262,-2.072 -0.786,-2.76c-0.524,-0.688 -1.302,-1.032 -2.334,-1.032c-0.712,0 -1.296,0.16 -1.752,0.48c-0.456,0.32 -0.794,0.764 -1.014,1.332c-0.22,0.568 -0.33,1.228 -0.33,1.98c-0,1.16 0.262,2.082 0.786,2.766c0.524,0.684 1.294,1.026 2.31,1.026Z" style="fill-rule:nonzero;"/><path d="M276.528,294.243l-0,-12.96l2.88,0l-0,3.168l-0.312,-0.408c0.168,-0.448 0.392,-0.856 0.672,-1.224c0.28,-0.368 0.624,-0.672 1.032,-0.912c0.312,-0.192 0.652,-0.342 1.02,-0.45c0.368,-0.108 0.748,-0.176 1.14,-0.204c0.392,-0.028 0.784,-0.018 1.176,0.03l-0,3.048c-0.36,-0.112 -0.778,-0.15 -1.254,-0.114c-0.476,0.036 -0.906,0.146 -1.29,0.33c-0.384,0.176 -0.708,0.41 -0.972,0.702c-0.264,0.292 -0.464,0.636 -0.6,1.032c-0.136,0.396 -0.204,0.842 -0.204,1.338l-0,6.624l-3.288,0Z" style="fill-rule:nonzero;"/><path d="M289.752,294.603c-1.632,0 -2.95,-0.37 -3.954,-1.11c-1.004,-0.74 -1.614,-1.786 -1.83,-3.138l3.336,-0.504c0.136,0.608 0.438,1.084 0.906,1.428c0.468,0.344 1.062,0.516 1.782,0.516c0.592,0 1.048,-0.114 1.368,-0.342c0.32,-0.228 0.48,-0.546 0.48,-0.954c-0,-0.256 -0.064,-0.462 -0.192,-0.618c-0.128,-0.156 -0.414,-0.31 -0.858,-0.462c-0.444,-0.152 -1.134,-0.352 -2.07,-0.6c-1.056,-0.272 -1.9,-0.576 -2.532,-0.912c-0.632,-0.336 -1.088,-0.738 -1.368,-1.206c-0.28,-0.468 -0.42,-1.034 -0.42,-1.698c-0,-0.832 0.212,-1.554 0.636,-2.166c0.424,-0.612 1.022,-1.084 1.794,-1.416c0.772,-0.332 1.682,-0.498 2.73,-0.498c1.016,0 1.916,0.156 2.7,0.468c0.784,0.312 1.418,0.756 1.902,1.332c0.484,0.576 0.782,1.256 0.894,2.04l-3.336,0.6c-0.056,-0.48 -0.264,-0.86 -0.624,-1.14c-0.36,-0.28 -0.848,-0.444 -1.464,-0.492c-0.6,-0.04 -1.082,0.04 -1.446,0.24c-0.364,0.2 -0.546,0.488 -0.546,0.864c-0,0.224 0.078,0.412 0.234,0.564c0.156,0.152 0.48,0.308 0.972,0.468c0.492,0.16 1.242,0.368 2.25,0.624c0.984,0.256 1.774,0.554 2.37,0.894c0.596,0.34 1.03,0.748 1.302,1.224c0.272,0.476 0.408,1.05 0.408,1.722c-0,1.328 -0.48,2.372 -1.44,3.132c-0.96,0.76 -2.288,1.14 -3.984,1.14Z" style="fill-rule:nonzero;"/></g></g><defs><linearGradient id="_Linear1" x1="0" y1="0" x2="1" y2="0" gradientUnits="userSpaceOnUse" gradientTransform="matrix(5.66571e-15,92.528,-107.018,6.55296e-15,85.0777,25.236)"><stop offset="0" style="stop-color:#fab507;stop-opacity:1"/><stop offset="0.5" style="stop-color:#ff8a00;stop-opacity:1"/><stop offset="1" style="stop-color:#ff3401;stop-opacity:1"/></linearGradient><linearGradient id="_Linear2" x1="0" y1="0" x2="1" y2="0" gradientUnits="userSpaceOnUse" gradientTransform="matrix(5.20475e-15,85,-40,2.44929e-15,75.0477,143.75)"><stop offset="0" style="stop-color:#fab507;stop-opacity:1"/><stop offset="0.5" style="stop-color:#ff8a00;stop-opacity:1"/><stop offset="1" style="stop-color:#ff3401;stop-opacity:1"/></linearGradient></defs></svg>