<?xml version="1.0" encoding="UTF-8" standalone="no"?><!DOCTYPE svg PUBLIC "-//W3C//DTD SVG 1.1//EN" "http://www.w3.org/Graphics/SVG/1.1/DTD/svg11.dtd"><svg width="16" height="16" viewBox="0 0 16 16" version="1.1" xmlns="http://www.w3.org/2000/svg" xmlns:xlink="http://www.w3.org/1999/xlink" xml:space="preserve" xmlns:serif="http://www.serif.com/" style="fill-rule:evenodd;clip-rule:evenodd;stroke-linejoin:round;stroke-miterlimit:2;"><rect id="favicon" x="0" y="-0" width="16" height="16" style="fill:none;"/><clipPath id="_clip1"><rect id="favicon1" serif:id="favicon" x="0" y="-0" width="16" height="16"/></clipPath><g clip-path="url(#_clip1)"><g><path d="M1.592,8.903c-0.328,-0.804 -0.509,-1.684 -0.509,-2.605c0,-0.368 0.299,-0.667 0.667,-0.667c0.368,0 0.667,0.299 0.667,0.667c-0,0.743 0.145,1.453 0.41,2.102c0.831,2.041 2.835,3.481 5.173,3.481c2.338,0 4.342,-1.44 5.173,-3.481c0.265,-0.649 0.41,-1.359 0.41,-2.102c0,-0.368 0.299,-0.667 0.667,-0.667c0.368,0 0.667,0.299 0.667,0.667c-0,0.921 -0.181,1.801 -0.509,2.605c-0.782,1.922 -2.405,3.413 -4.41,4.018l0,1.746l1.335,-0c0.368,-0 0.667,0.298 0.667,0.666c0,0.368 -0.299,0.667 -0.667,0.667l-6.666,0c-0.368,0 -0.667,-0.299 -0.667,-0.667c-0,-0.368 0.299,-0.666 0.667,-0.666l1.335,-0l-0,-1.746c-2.005,-0.605 -3.628,-2.096 -4.41,-4.018Zm7.073,4.28c-0.219,0.021 -0.441,0.032 -0.665,0.032c-0.224,-0 -0.446,-0.011 -0.665,-0.032c-0,0.637 -0,1.484 -0,1.484l1.33,-0l0,-1.484Zm-0.143,-7.175c-0.188,-0.316 -0.084,-0.725 0.232,-0.914c0.316,-0.188 0.725,-0.085 0.914,0.231c0.541,0.909 0.244,2.087 -0.665,2.628c-0.909,0.542 -2.086,0.244 -2.628,-0.665c-0.895,-1.501 -0.403,-3.446 1.099,-4.341c1.501,-0.895 3.446,-0.403 4.341,1.098c1.248,2.094 0.562,4.808 -1.532,6.056c-2.094,1.248 -4.807,0.561 -6.055,-1.533c-1.602,-2.686 -0.721,-6.167 1.966,-7.769c2.686,-1.601 6.167,-0.72 7.769,1.966c0.188,0.316 0.085,0.726 -0.232,0.914c-0.316,0.189 -0.725,0.085 -0.914,-0.231c-1.224,-2.054 -3.886,-2.728 -5.941,-1.503c-2.054,1.224 -2.728,3.886 -1.503,5.941c0.871,1.461 2.765,1.941 4.227,1.069c1.462,-0.871 1.941,-2.765 1.07,-4.227c-0.518,-0.869 -1.644,-1.154 -2.514,-0.636c-0.869,0.518 -1.154,1.644 -0.636,2.514c0.165,0.276 0.524,0.367 0.8,0.202c0.277,-0.165 0.367,-0.523 0.202,-0.8Z" style="fill:url(#_Linear2);"/></g></g><defs><linearGradient id="_Linear2" x1="0" y1="0" x2="1" y2="0" gradientUnits="userSpaceOnUse" gradientTransform="matrix(9.79717e-16,16,-18.5056,1.13314e-15,8,-1.42109e-14)"><stop offset="0" style="stop-color:#fab507;stop-opacity:1"/><stop offset="0.5" style="stop-color:#ff8a00;stop-opacity:1"/><stop offset="1" style="stop-color:#ff3401;stop-opacity:1"/></linearGradient></defs></svg>